%TF.GenerationSoftware,KiCad,Pcbnew,8.0.5*%
%TF.CreationDate,2025-01-13T21:43:40-08:00*%
%TF.ProjectId,hyperion,68797065-7269-46f6-9e2e-6b696361645f,rev?*%
%TF.SameCoordinates,Original*%
%TF.FileFunction,Copper,L1,Top*%
%TF.FilePolarity,Positive*%
%FSLAX46Y46*%
G04 Gerber Fmt 4.6, Leading zero omitted, Abs format (unit mm)*
G04 Created by KiCad (PCBNEW 8.0.5) date 2025-01-13 21:43:40*
%MOMM*%
%LPD*%
G01*
G04 APERTURE LIST*
G04 Aperture macros list*
%AMRoundRect*
0 Rectangle with rounded corners*
0 $1 Rounding radius*
0 $2 $3 $4 $5 $6 $7 $8 $9 X,Y pos of 4 corners*
0 Add a 4 corners polygon primitive as box body*
4,1,4,$2,$3,$4,$5,$6,$7,$8,$9,$2,$3,0*
0 Add four circle primitives for the rounded corners*
1,1,$1+$1,$2,$3*
1,1,$1+$1,$4,$5*
1,1,$1+$1,$6,$7*
1,1,$1+$1,$8,$9*
0 Add four rect primitives between the rounded corners*
20,1,$1+$1,$2,$3,$4,$5,0*
20,1,$1+$1,$4,$5,$6,$7,0*
20,1,$1+$1,$6,$7,$8,$9,0*
20,1,$1+$1,$8,$9,$2,$3,0*%
G04 Aperture macros list end*
%TA.AperFunction,ComponentPad*%
%ADD10C,2.500000*%
%TD*%
%TA.AperFunction,ComponentPad*%
%ADD11R,2.500000X2.500000*%
%TD*%
%TA.AperFunction,ComponentPad*%
%ADD12C,1.500000*%
%TD*%
%TA.AperFunction,ComponentPad*%
%ADD13R,1.500000X1.500000*%
%TD*%
%TA.AperFunction,SMDPad,CuDef*%
%ADD14RoundRect,0.250000X-0.412500X-0.650000X0.412500X-0.650000X0.412500X0.650000X-0.412500X0.650000X0*%
%TD*%
%TA.AperFunction,SMDPad,CuDef*%
%ADD15RoundRect,0.250000X-0.625000X0.400000X-0.625000X-0.400000X0.625000X-0.400000X0.625000X0.400000X0*%
%TD*%
%TA.AperFunction,SMDPad,CuDef*%
%ADD16RoundRect,0.250000X-0.400000X-0.625000X0.400000X-0.625000X0.400000X0.625000X-0.400000X0.625000X0*%
%TD*%
%TA.AperFunction,SMDPad,CuDef*%
%ADD17RoundRect,0.250000X0.650000X-0.412500X0.650000X0.412500X-0.650000X0.412500X-0.650000X-0.412500X0*%
%TD*%
%TA.AperFunction,SMDPad,CuDef*%
%ADD18RoundRect,0.250000X0.625000X-0.400000X0.625000X0.400000X-0.625000X0.400000X-0.625000X-0.400000X0*%
%TD*%
%TA.AperFunction,SMDPad,CuDef*%
%ADD19RoundRect,0.250000X0.400000X0.625000X-0.400000X0.625000X-0.400000X-0.625000X0.400000X-0.625000X0*%
%TD*%
%TA.AperFunction,SMDPad,CuDef*%
%ADD20RoundRect,0.250000X-0.650000X0.412500X-0.650000X-0.412500X0.650000X-0.412500X0.650000X0.412500X0*%
%TD*%
%TA.AperFunction,Conductor*%
%ADD21C,0.508000*%
%TD*%
%TA.AperFunction,Conductor*%
%ADD22C,0.457200*%
%TD*%
G04 APERTURE END LIST*
D10*
%TO.P,TP4,1,1*%
%TO.N,Net-(C4-Pad2)*%
X142494000Y-124866400D03*
%TD*%
D11*
%TO.P,TP3,1,1*%
%TO.N,Earth*%
X135128000Y-124968000D03*
%TD*%
D10*
%TO.P,TP2,1,1*%
%TO.N,Net-(R3-Pad2)*%
X132345000Y-105730000D03*
%TD*%
%TO.P,TP1,1,1*%
%TO.N,Net-(C1-Pad1)*%
X128879600Y-124968000D03*
%TD*%
D12*
%TO.P,Q3,3,C*%
%TO.N,Net-(Q2-C)*%
X140840000Y-114090000D03*
%TO.P,Q3,2,B*%
%TO.N,Net-(Q2-B)*%
X138300000Y-114090000D03*
D13*
%TO.P,Q3,1,E*%
%TO.N,Earth*%
X135760000Y-114090000D03*
%TD*%
%TO.P,Q2,1,E*%
%TO.N,Earth*%
X135760000Y-121160000D03*
D12*
%TO.P,Q2,2,B*%
%TO.N,Net-(Q2-B)*%
X138300000Y-121160000D03*
%TO.P,Q2,3,C*%
%TO.N,Net-(Q2-C)*%
X140840000Y-121160000D03*
%TD*%
%TO.P,Q1,3,C*%
%TO.N,Net-(Q1-C)*%
X128574800Y-117246400D03*
%TO.P,Q1,2,B*%
%TO.N,Net-(Q1-B)*%
X131114800Y-117246400D03*
D13*
%TO.P,Q1,1,E*%
%TO.N,Earth*%
X133654800Y-117246400D03*
%TD*%
D14*
%TO.P,C2,2*%
%TO.N,Earth*%
X131752500Y-110810000D03*
%TO.P,C2,1*%
%TO.N,Net-(Q1-C)*%
X128627500Y-110810000D03*
%TD*%
D15*
%TO.P,R5,2*%
%TO.N,Net-(Q2-B)*%
X142470000Y-110020000D03*
%TO.P,R5,1*%
%TO.N,Net-(Q2-C)*%
X142470000Y-106920000D03*
%TD*%
D16*
%TO.P,R2,1*%
%TO.N,Net-(Q1-C)*%
X128650000Y-113890000D03*
%TO.P,R2,2*%
%TO.N,Net-(Q1-B)*%
X131750000Y-113890000D03*
%TD*%
D14*
%TO.P,C3,1*%
%TO.N,Net-(Q1-C)*%
X135247500Y-109350000D03*
%TO.P,C3,2*%
%TO.N,Net-(Q2-B)*%
X138372500Y-109350000D03*
%TD*%
D17*
%TO.P,C1,1*%
%TO.N,Net-(C1-Pad1)*%
X131978400Y-124142900D03*
%TO.P,C1,2*%
%TO.N,Net-(Q1-B)*%
X131978400Y-121017900D03*
%TD*%
D18*
%TO.P,R3,2*%
%TO.N,Net-(R3-Pad2)*%
X128540000Y-105300000D03*
%TO.P,R3,1*%
%TO.N,Net-(Q1-C)*%
X128540000Y-108400000D03*
%TD*%
D19*
%TO.P,R4,2*%
%TO.N,Net-(R3-Pad2)*%
X135930000Y-105740000D03*
%TO.P,R4,1*%
%TO.N,Net-(Q2-C)*%
X139030000Y-105740000D03*
%TD*%
D20*
%TO.P,C4,1*%
%TO.N,Net-(Q2-C)*%
X143103600Y-116078000D03*
%TO.P,C4,2*%
%TO.N,Net-(C4-Pad2)*%
X143103600Y-119203000D03*
%TD*%
D21*
%TO.N,Net-(Q2-B)*%
X139720000Y-109350000D02*
X139720000Y-111220000D01*
X138372500Y-109350000D02*
X139720000Y-109350000D01*
%TO.N,Net-(Q1-C)*%
X128540000Y-109350000D02*
X135247500Y-109350000D01*
%TO.N,Net-(Q1-B)*%
X132850000Y-113890000D02*
X131750000Y-113890000D01*
X132850000Y-115520000D02*
X132850000Y-113890000D01*
X132841200Y-115520000D02*
X132850000Y-115520000D01*
X131114800Y-117246400D02*
X132841200Y-115520000D01*
%TO.N,Net-(Q2-B)*%
X138300000Y-112660000D02*
X138300000Y-114090000D01*
X139720000Y-111220000D02*
X138290000Y-112650000D01*
X141110000Y-111220000D02*
X139720000Y-111220000D01*
X138290000Y-112650000D02*
X138300000Y-112660000D01*
X142470000Y-111220000D02*
X141110000Y-111220000D01*
X142470000Y-110020000D02*
X142470000Y-111220000D01*
%TO.N,Net-(Q2-C)*%
X141910000Y-114090000D02*
X140840000Y-114090000D01*
X143103600Y-114922400D02*
X142742400Y-114922400D01*
X142742400Y-114922400D02*
X141910000Y-114090000D01*
X140840000Y-121160000D02*
X140840000Y-114090000D01*
%TO.N,Net-(Q2-B)*%
X138300000Y-121160000D02*
X138300000Y-114090000D01*
%TO.N,Net-(Q2-C)*%
X144026000Y-114000000D02*
X143103600Y-114922400D01*
X143103600Y-114922400D02*
X143103600Y-116078000D01*
X143950000Y-105740000D02*
X144026000Y-105816000D01*
X144026000Y-105816000D02*
X144026000Y-114000000D01*
X142460000Y-105740000D02*
X143950000Y-105740000D01*
X142460000Y-106040000D02*
X142470000Y-106050000D01*
X142460000Y-105740000D02*
X142460000Y-106040000D01*
X139030000Y-105740000D02*
X142460000Y-105740000D01*
X142470000Y-106050000D02*
X142470000Y-106920000D01*
%TO.N,Net-(R3-Pad2)*%
X130120000Y-105720000D02*
X130140000Y-105740000D01*
X130120000Y-104259000D02*
X130120000Y-105720000D01*
X130150000Y-105730000D02*
X132230000Y-105730000D01*
X128550000Y-104259000D02*
X130120000Y-104259000D01*
X130140000Y-105740000D02*
X130150000Y-105730000D01*
X128540000Y-104269000D02*
X128550000Y-104259000D01*
X128540000Y-105300000D02*
X128540000Y-104269000D01*
X132240000Y-105740000D02*
X132230000Y-105730000D01*
X135930000Y-105740000D02*
X132240000Y-105740000D01*
%TO.N,Net-(Q1-C)*%
X128540000Y-109350000D02*
X128540000Y-108400000D01*
X128300000Y-109350000D02*
X128540000Y-109350000D01*
X127754000Y-109896000D02*
X128300000Y-109350000D01*
X127754000Y-110800000D02*
X127754000Y-109896000D01*
X127754000Y-113606000D02*
X127754000Y-110800000D01*
X127754000Y-110800000D02*
X127764000Y-110810000D01*
X127764000Y-113616000D02*
X127754000Y-113606000D01*
X127764000Y-113890000D02*
X127764000Y-113616000D01*
X127764000Y-110810000D02*
X128627500Y-110810000D01*
X127764000Y-113890000D02*
X128650000Y-113890000D01*
X127754000Y-116425600D02*
X127754000Y-113900000D01*
X127754000Y-113900000D02*
X127764000Y-113890000D01*
X128574800Y-117246400D02*
X127754000Y-116425600D01*
%TO.N,Net-(C4-Pad2)*%
X142494000Y-121767600D02*
X143103600Y-121158000D01*
X143103600Y-121158000D02*
X143103600Y-119203000D01*
X142494000Y-124866400D02*
X142494000Y-121767600D01*
%TO.N,Net-(Q1-B)*%
X131114800Y-118770400D02*
X131114800Y-117246400D01*
X131978400Y-119634000D02*
X131114800Y-118770400D01*
X131978400Y-121017900D02*
X131978400Y-119634000D01*
%TO.N,Net-(C1-Pad1)*%
X131978400Y-124968000D02*
X131978400Y-124142900D01*
X128879600Y-124968000D02*
X131978400Y-124968000D01*
D22*
X128524000Y-125526800D02*
X128524000Y-125476000D01*
%TD*%
%TA.AperFunction,Conductor*%
%TO.N,Earth*%
G36*
X133326040Y-110009930D02*
G01*
X133347061Y-110026711D01*
X135391952Y-112052311D01*
X136008209Y-112662754D01*
X136042529Y-112724905D01*
X136037800Y-112795743D01*
X136010000Y-112839228D01*
X136010000Y-113774314D01*
X136005606Y-113769920D01*
X135914394Y-113717259D01*
X135812661Y-113690000D01*
X135707339Y-113690000D01*
X135605606Y-113717259D01*
X135514394Y-113769920D01*
X135510000Y-113774314D01*
X135510000Y-112840000D01*
X134962159Y-112840000D01*
X134902628Y-112846400D01*
X134767910Y-112896647D01*
X134652810Y-112982810D01*
X134566647Y-113097910D01*
X134516400Y-113232628D01*
X134510000Y-113292159D01*
X134510000Y-113840000D01*
X135444314Y-113840000D01*
X135439920Y-113844394D01*
X135387259Y-113935606D01*
X135360000Y-114037339D01*
X135360000Y-114142661D01*
X135387259Y-114244394D01*
X135439920Y-114335606D01*
X135444314Y-114340000D01*
X134510000Y-114340000D01*
X134510000Y-114887840D01*
X134516400Y-114947371D01*
X134566647Y-115082089D01*
X134652810Y-115197189D01*
X134767910Y-115283352D01*
X134902628Y-115333599D01*
X134962159Y-115339999D01*
X134962176Y-115340000D01*
X135510000Y-115340000D01*
X135510000Y-114405686D01*
X135514394Y-114410080D01*
X135605606Y-114462741D01*
X135707339Y-114490000D01*
X135812661Y-114490000D01*
X135914394Y-114462741D01*
X136005606Y-114410080D01*
X136010000Y-114405686D01*
X136010000Y-115340000D01*
X136366459Y-115340000D01*
X136434580Y-115360002D01*
X136481073Y-115413658D01*
X136492458Y-115465865D01*
X136494077Y-116996400D01*
X136497023Y-119783867D01*
X136477093Y-119852009D01*
X136423486Y-119898558D01*
X136371023Y-119910000D01*
X136010000Y-119910000D01*
X136010000Y-120844314D01*
X136005606Y-120839920D01*
X135914394Y-120787259D01*
X135812661Y-120760000D01*
X135707339Y-120760000D01*
X135605606Y-120787259D01*
X135514394Y-120839920D01*
X135510000Y-120844314D01*
X135510000Y-119910000D01*
X134962159Y-119910000D01*
X134902628Y-119916400D01*
X134767910Y-119966647D01*
X134652810Y-120052810D01*
X134566647Y-120167910D01*
X134516400Y-120302628D01*
X134510000Y-120362159D01*
X134510000Y-120910000D01*
X135444314Y-120910000D01*
X135439920Y-120914394D01*
X135387259Y-121005606D01*
X135360000Y-121107339D01*
X135360000Y-121212661D01*
X135387259Y-121314394D01*
X135439920Y-121405606D01*
X135444314Y-121410000D01*
X134510000Y-121410000D01*
X134510000Y-121957840D01*
X134516400Y-122017371D01*
X134566647Y-122152089D01*
X134652810Y-122267189D01*
X134767910Y-122353352D01*
X134902628Y-122403599D01*
X134962159Y-122409999D01*
X134962176Y-122410000D01*
X135510000Y-122410000D01*
X135510000Y-121475686D01*
X135514394Y-121480080D01*
X135605606Y-121532741D01*
X135707339Y-121560000D01*
X135812661Y-121560000D01*
X135914394Y-121532741D01*
X136005606Y-121480080D01*
X136010000Y-121475686D01*
X136010000Y-122410000D01*
X136373932Y-122410000D01*
X136442053Y-122430002D01*
X136488546Y-122483658D01*
X136499932Y-122535867D01*
X136499999Y-122599999D01*
X136500000Y-122600000D01*
X137874615Y-122600000D01*
X137942736Y-122620002D01*
X137989229Y-122673658D01*
X138000613Y-122725384D01*
X138018449Y-126372884D01*
X137998781Y-126441102D01*
X137945353Y-126487856D01*
X137892451Y-126499500D01*
X136988127Y-126499500D01*
X136920006Y-126479498D01*
X136873513Y-126425842D01*
X136863409Y-126355568D01*
X136870072Y-126329465D01*
X136871599Y-126325370D01*
X136877999Y-126265840D01*
X136878000Y-126265823D01*
X136878000Y-125218000D01*
X135676482Y-125218000D01*
X135687111Y-125199591D01*
X135728000Y-125046991D01*
X135728000Y-124889009D01*
X135687111Y-124736409D01*
X135676482Y-124718000D01*
X136878000Y-124718000D01*
X136878000Y-123670176D01*
X136877999Y-123670159D01*
X136871599Y-123610628D01*
X136821352Y-123475910D01*
X136735189Y-123360810D01*
X136620089Y-123274647D01*
X136485371Y-123224400D01*
X136425840Y-123218000D01*
X135378000Y-123218000D01*
X135378000Y-124419517D01*
X135359591Y-124408889D01*
X135206991Y-124368000D01*
X135049009Y-124368000D01*
X134896409Y-124408889D01*
X134878000Y-124419517D01*
X134878000Y-123218000D01*
X133830159Y-123218000D01*
X133770628Y-123224400D01*
X133635910Y-123274647D01*
X133620242Y-123286377D01*
X133553722Y-123311187D01*
X133484348Y-123296095D01*
X133434146Y-123245893D01*
X133418736Y-123186270D01*
X133400000Y-120090000D01*
X132911764Y-119035411D01*
X132900107Y-118981994D01*
X132901487Y-118621917D01*
X132921750Y-118553874D01*
X132975583Y-118507587D01*
X133027486Y-118496400D01*
X133404800Y-118496400D01*
X133404800Y-117562086D01*
X133409194Y-117566480D01*
X133500406Y-117619141D01*
X133602139Y-117646400D01*
X133707461Y-117646400D01*
X133809194Y-117619141D01*
X133900406Y-117566480D01*
X133904800Y-117562086D01*
X133904800Y-118496400D01*
X134452624Y-118496400D01*
X134452640Y-118496399D01*
X134512171Y-118489999D01*
X134646889Y-118439752D01*
X134761989Y-118353589D01*
X134848152Y-118238489D01*
X134898399Y-118103771D01*
X134904799Y-118044240D01*
X134904800Y-118044223D01*
X134904800Y-117496400D01*
X133970486Y-117496400D01*
X133974880Y-117492006D01*
X134027541Y-117400794D01*
X134054800Y-117299061D01*
X134054800Y-117193739D01*
X134027541Y-117092006D01*
X133974880Y-117000794D01*
X133970486Y-116996400D01*
X134904800Y-116996400D01*
X134904800Y-116448576D01*
X134904799Y-116448559D01*
X134898399Y-116389028D01*
X134848152Y-116254310D01*
X134761989Y-116139210D01*
X134646889Y-116053047D01*
X134512171Y-116002800D01*
X134452640Y-115996400D01*
X133835236Y-115996400D01*
X133767115Y-115976398D01*
X133720622Y-115922742D01*
X133709238Y-115871146D01*
X133690000Y-112620000D01*
X131195520Y-112620000D01*
X131127399Y-112599998D01*
X131080906Y-112546342D01*
X131069521Y-112494482D01*
X131069484Y-112485016D01*
X131068883Y-112327412D01*
X131088623Y-112259220D01*
X131142101Y-112212522D01*
X131207689Y-112201588D01*
X131290013Y-112209999D01*
X131502500Y-112209999D01*
X132002500Y-112209999D01*
X132214978Y-112209999D01*
X132317691Y-112199506D01*
X132484122Y-112144357D01*
X132633344Y-112052316D01*
X132633350Y-112052311D01*
X132757311Y-111928350D01*
X132757316Y-111928344D01*
X132849357Y-111779122D01*
X132904506Y-111612691D01*
X132914999Y-111509987D01*
X132915000Y-111509987D01*
X132915000Y-111060000D01*
X132002500Y-111060000D01*
X132002500Y-112209999D01*
X131502500Y-112209999D01*
X131502500Y-110686000D01*
X131522502Y-110617879D01*
X131576158Y-110571386D01*
X131628500Y-110560000D01*
X132914999Y-110560000D01*
X132914999Y-110117196D01*
X132935001Y-110049075D01*
X132988657Y-110002582D01*
X133040434Y-109991198D01*
X133257833Y-109990231D01*
X133326040Y-110009930D01*
G37*
%TD.AperFunction*%
%TD*%
M02*
