%TF.GenerationSoftware,KiCad,Pcbnew,8.0.5*%
%TF.CreationDate,2025-01-09T17:25:31-08:00*%
%TF.ProjectId,hyperion,68797065-7269-46f6-9e2e-6b696361645f,rev?*%
%TF.SameCoordinates,Original*%
%TF.FileFunction,Drillmap*%
%TF.FilePolarity,Positive*%
%FSLAX45Y45*%
G04 Gerber Fmt 4.5, Leading zero omitted, Abs format (unit mm)*
G04 Created by KiCad (PCBNEW 8.0.5) date 2025-01-09 17:25:31*
%MOMM*%
%LPD*%
G01*
G04 APERTURE LIST*
%ADD10C,0.050000*%
%ADD11C,0.200000*%
%ADD12C,0.100000*%
G04 APERTURE END LIST*
D10*
X12700000Y-12700000D02*
X14605000Y-12700000D01*
X14605000Y-12700000D02*
X14605000Y-10541000D01*
X12700000Y-10541000D02*
X12700000Y-12700000D01*
X14605000Y-10541000D02*
X12700000Y-10541000D01*
D11*
D12*
X12827400Y-12522600D02*
X12877400Y-12572600D01*
X12877400Y-12522600D02*
X12827400Y-12572600D01*
X13457520Y-12535320D02*
X13507520Y-12585320D01*
X13507520Y-12535320D02*
X13457520Y-12585320D01*
X13624960Y-10739520D02*
X13674960Y-10789520D01*
X13674960Y-10739520D02*
X13624960Y-10789520D01*
X14437760Y-12535320D02*
X14487760Y-12585320D01*
X14487760Y-12535320D02*
X14437760Y-12585320D01*
X13255660Y-11785600D02*
G75*
G02*
X13180660Y-11785600I-37500J0D01*
G01*
X13180660Y-11785600D02*
G75*
G02*
X13255660Y-11785600I37500J0D01*
G01*
X13382660Y-11785600D02*
G75*
G02*
X13307660Y-11785600I-37500J0D01*
G01*
X13307660Y-11785600D02*
G75*
G02*
X13382660Y-11785600I37500J0D01*
G01*
X13509660Y-11785600D02*
G75*
G02*
X13434660Y-11785600I-37500J0D01*
G01*
X13434660Y-11785600D02*
G75*
G02*
X13509660Y-11785600I37500J0D01*
G01*
X13880500Y-11719560D02*
G75*
G02*
X13805500Y-11719560I-37500J0D01*
G01*
X13805500Y-11719560D02*
G75*
G02*
X13880500Y-11719560I37500J0D01*
G01*
X13880500Y-12319000D02*
G75*
G02*
X13805500Y-12319000I-37500J0D01*
G01*
X13805500Y-12319000D02*
G75*
G02*
X13880500Y-12319000I37500J0D01*
G01*
X14007500Y-11719560D02*
G75*
G02*
X13932500Y-11719560I-37500J0D01*
G01*
X13932500Y-11719560D02*
G75*
G02*
X14007500Y-11719560I37500J0D01*
G01*
X14007500Y-12319000D02*
G75*
G02*
X13932500Y-12319000I-37500J0D01*
G01*
X13932500Y-12319000D02*
G75*
G02*
X14007500Y-12319000I37500J0D01*
G01*
X14134500Y-11719560D02*
G75*
G02*
X14059500Y-11719560I-37500J0D01*
G01*
X14059500Y-11719560D02*
G75*
G02*
X14134500Y-11719560I37500J0D01*
G01*
X14134500Y-12319000D02*
G75*
G02*
X14059500Y-12319000I-37500J0D01*
G01*
X14059500Y-12319000D02*
G75*
G02*
X14134500Y-12319000I37500J0D01*
G01*
D11*
X12958277Y-13013984D02*
X12958277Y-12813984D01*
X12958277Y-12813984D02*
X13005896Y-12813984D01*
X13005896Y-12813984D02*
X13034467Y-12823508D01*
X13034467Y-12823508D02*
X13053515Y-12842555D01*
X13053515Y-12842555D02*
X13063039Y-12861603D01*
X13063039Y-12861603D02*
X13072562Y-12899698D01*
X13072562Y-12899698D02*
X13072562Y-12928269D01*
X13072562Y-12928269D02*
X13063039Y-12966365D01*
X13063039Y-12966365D02*
X13053515Y-12985412D01*
X13053515Y-12985412D02*
X13034467Y-13004460D01*
X13034467Y-13004460D02*
X13005896Y-13013984D01*
X13005896Y-13013984D02*
X12958277Y-13013984D01*
X13158277Y-13013984D02*
X13158277Y-12880650D01*
X13158277Y-12918746D02*
X13167801Y-12899698D01*
X13167801Y-12899698D02*
X13177324Y-12890174D01*
X13177324Y-12890174D02*
X13196372Y-12880650D01*
X13196372Y-12880650D02*
X13215420Y-12880650D01*
X13282086Y-13013984D02*
X13282086Y-12880650D01*
X13282086Y-12813984D02*
X13272562Y-12823508D01*
X13272562Y-12823508D02*
X13282086Y-12833031D01*
X13282086Y-12833031D02*
X13291610Y-12823508D01*
X13291610Y-12823508D02*
X13282086Y-12813984D01*
X13282086Y-12813984D02*
X13282086Y-12833031D01*
X13405896Y-13013984D02*
X13386848Y-13004460D01*
X13386848Y-13004460D02*
X13377324Y-12985412D01*
X13377324Y-12985412D02*
X13377324Y-12813984D01*
X13510658Y-13013984D02*
X13491610Y-13004460D01*
X13491610Y-13004460D02*
X13482086Y-12985412D01*
X13482086Y-12985412D02*
X13482086Y-12813984D01*
X13739229Y-13013984D02*
X13739229Y-12813984D01*
X13739229Y-12813984D02*
X13805896Y-12956841D01*
X13805896Y-12956841D02*
X13872562Y-12813984D01*
X13872562Y-12813984D02*
X13872562Y-13013984D01*
X14053515Y-13013984D02*
X14053515Y-12909222D01*
X14053515Y-12909222D02*
X14043991Y-12890174D01*
X14043991Y-12890174D02*
X14024943Y-12880650D01*
X14024943Y-12880650D02*
X13986848Y-12880650D01*
X13986848Y-12880650D02*
X13967801Y-12890174D01*
X14053515Y-13004460D02*
X14034467Y-13013984D01*
X14034467Y-13013984D02*
X13986848Y-13013984D01*
X13986848Y-13013984D02*
X13967801Y-13004460D01*
X13967801Y-13004460D02*
X13958277Y-12985412D01*
X13958277Y-12985412D02*
X13958277Y-12966365D01*
X13958277Y-12966365D02*
X13967801Y-12947317D01*
X13967801Y-12947317D02*
X13986848Y-12937793D01*
X13986848Y-12937793D02*
X14034467Y-12937793D01*
X14034467Y-12937793D02*
X14053515Y-12928269D01*
X14148753Y-12880650D02*
X14148753Y-13080650D01*
X14148753Y-12890174D02*
X14167801Y-12880650D01*
X14167801Y-12880650D02*
X14205896Y-12880650D01*
X14205896Y-12880650D02*
X14224943Y-12890174D01*
X14224943Y-12890174D02*
X14234467Y-12899698D01*
X14234467Y-12899698D02*
X14243991Y-12918746D01*
X14243991Y-12918746D02*
X14243991Y-12975888D01*
X14243991Y-12975888D02*
X14234467Y-12994936D01*
X14234467Y-12994936D02*
X14224943Y-13004460D01*
X14224943Y-13004460D02*
X14205896Y-13013984D01*
X14205896Y-13013984D02*
X14167801Y-13013984D01*
X14167801Y-13013984D02*
X14148753Y-13004460D01*
X14329705Y-12994936D02*
X14339229Y-13004460D01*
X14339229Y-13004460D02*
X14329705Y-13013984D01*
X14329705Y-13013984D02*
X14320182Y-13004460D01*
X14320182Y-13004460D02*
X14329705Y-12994936D01*
X14329705Y-12994936D02*
X14329705Y-13013984D01*
X14329705Y-12890174D02*
X14339229Y-12899698D01*
X14339229Y-12899698D02*
X14329705Y-12909222D01*
X14329705Y-12909222D02*
X14320182Y-12899698D01*
X14320182Y-12899698D02*
X14329705Y-12890174D01*
X14329705Y-12890174D02*
X14329705Y-12909222D01*
D12*
X12647500Y-13317500D02*
X12697500Y-13367500D01*
X12697500Y-13317500D02*
X12647500Y-13367500D01*
D11*
X12996372Y-13233984D02*
X13015420Y-13233984D01*
X13015420Y-13233984D02*
X13034467Y-13243508D01*
X13034467Y-13243508D02*
X13043991Y-13253031D01*
X13043991Y-13253031D02*
X13053515Y-13272079D01*
X13053515Y-13272079D02*
X13063039Y-13310174D01*
X13063039Y-13310174D02*
X13063039Y-13357793D01*
X13063039Y-13357793D02*
X13053515Y-13395888D01*
X13053515Y-13395888D02*
X13043991Y-13414936D01*
X13043991Y-13414936D02*
X13034467Y-13424460D01*
X13034467Y-13424460D02*
X13015420Y-13433984D01*
X13015420Y-13433984D02*
X12996372Y-13433984D01*
X12996372Y-13433984D02*
X12977324Y-13424460D01*
X12977324Y-13424460D02*
X12967801Y-13414936D01*
X12967801Y-13414936D02*
X12958277Y-13395888D01*
X12958277Y-13395888D02*
X12948753Y-13357793D01*
X12948753Y-13357793D02*
X12948753Y-13310174D01*
X12948753Y-13310174D02*
X12958277Y-13272079D01*
X12958277Y-13272079D02*
X12967801Y-13253031D01*
X12967801Y-13253031D02*
X12977324Y-13243508D01*
X12977324Y-13243508D02*
X12996372Y-13233984D01*
X13148753Y-13414936D02*
X13158277Y-13424460D01*
X13158277Y-13424460D02*
X13148753Y-13433984D01*
X13148753Y-13433984D02*
X13139229Y-13424460D01*
X13139229Y-13424460D02*
X13148753Y-13414936D01*
X13148753Y-13414936D02*
X13148753Y-13433984D01*
X13339229Y-13233984D02*
X13243991Y-13233984D01*
X13243991Y-13233984D02*
X13234467Y-13329222D01*
X13234467Y-13329222D02*
X13243991Y-13319698D01*
X13243991Y-13319698D02*
X13263039Y-13310174D01*
X13263039Y-13310174D02*
X13310658Y-13310174D01*
X13310658Y-13310174D02*
X13329705Y-13319698D01*
X13329705Y-13319698D02*
X13339229Y-13329222D01*
X13339229Y-13329222D02*
X13348753Y-13348269D01*
X13348753Y-13348269D02*
X13348753Y-13395888D01*
X13348753Y-13395888D02*
X13339229Y-13414936D01*
X13339229Y-13414936D02*
X13329705Y-13424460D01*
X13329705Y-13424460D02*
X13310658Y-13433984D01*
X13310658Y-13433984D02*
X13263039Y-13433984D01*
X13263039Y-13433984D02*
X13243991Y-13424460D01*
X13243991Y-13424460D02*
X13234467Y-13414936D01*
X13472562Y-13233984D02*
X13491610Y-13233984D01*
X13491610Y-13233984D02*
X13510658Y-13243508D01*
X13510658Y-13243508D02*
X13520182Y-13253031D01*
X13520182Y-13253031D02*
X13529705Y-13272079D01*
X13529705Y-13272079D02*
X13539229Y-13310174D01*
X13539229Y-13310174D02*
X13539229Y-13357793D01*
X13539229Y-13357793D02*
X13529705Y-13395888D01*
X13529705Y-13395888D02*
X13520182Y-13414936D01*
X13520182Y-13414936D02*
X13510658Y-13424460D01*
X13510658Y-13424460D02*
X13491610Y-13433984D01*
X13491610Y-13433984D02*
X13472562Y-13433984D01*
X13472562Y-13433984D02*
X13453515Y-13424460D01*
X13453515Y-13424460D02*
X13443991Y-13414936D01*
X13443991Y-13414936D02*
X13434467Y-13395888D01*
X13434467Y-13395888D02*
X13424943Y-13357793D01*
X13424943Y-13357793D02*
X13424943Y-13310174D01*
X13424943Y-13310174D02*
X13434467Y-13272079D01*
X13434467Y-13272079D02*
X13443991Y-13253031D01*
X13443991Y-13253031D02*
X13453515Y-13243508D01*
X13453515Y-13243508D02*
X13472562Y-13233984D01*
X13663039Y-13233984D02*
X13682086Y-13233984D01*
X13682086Y-13233984D02*
X13701134Y-13243508D01*
X13701134Y-13243508D02*
X13710658Y-13253031D01*
X13710658Y-13253031D02*
X13720182Y-13272079D01*
X13720182Y-13272079D02*
X13729705Y-13310174D01*
X13729705Y-13310174D02*
X13729705Y-13357793D01*
X13729705Y-13357793D02*
X13720182Y-13395888D01*
X13720182Y-13395888D02*
X13710658Y-13414936D01*
X13710658Y-13414936D02*
X13701134Y-13424460D01*
X13701134Y-13424460D02*
X13682086Y-13433984D01*
X13682086Y-13433984D02*
X13663039Y-13433984D01*
X13663039Y-13433984D02*
X13643991Y-13424460D01*
X13643991Y-13424460D02*
X13634467Y-13414936D01*
X13634467Y-13414936D02*
X13624943Y-13395888D01*
X13624943Y-13395888D02*
X13615420Y-13357793D01*
X13615420Y-13357793D02*
X13615420Y-13310174D01*
X13615420Y-13310174D02*
X13624943Y-13272079D01*
X13624943Y-13272079D02*
X13634467Y-13253031D01*
X13634467Y-13253031D02*
X13643991Y-13243508D01*
X13643991Y-13243508D02*
X13663039Y-13233984D01*
X13815420Y-13433984D02*
X13815420Y-13300650D01*
X13815420Y-13319698D02*
X13824943Y-13310174D01*
X13824943Y-13310174D02*
X13843991Y-13300650D01*
X13843991Y-13300650D02*
X13872563Y-13300650D01*
X13872563Y-13300650D02*
X13891610Y-13310174D01*
X13891610Y-13310174D02*
X13901134Y-13329222D01*
X13901134Y-13329222D02*
X13901134Y-13433984D01*
X13901134Y-13329222D02*
X13910658Y-13310174D01*
X13910658Y-13310174D02*
X13929705Y-13300650D01*
X13929705Y-13300650D02*
X13958277Y-13300650D01*
X13958277Y-13300650D02*
X13977324Y-13310174D01*
X13977324Y-13310174D02*
X13986848Y-13329222D01*
X13986848Y-13329222D02*
X13986848Y-13433984D01*
X14082086Y-13433984D02*
X14082086Y-13300650D01*
X14082086Y-13319698D02*
X14091610Y-13310174D01*
X14091610Y-13310174D02*
X14110658Y-13300650D01*
X14110658Y-13300650D02*
X14139229Y-13300650D01*
X14139229Y-13300650D02*
X14158277Y-13310174D01*
X14158277Y-13310174D02*
X14167801Y-13329222D01*
X14167801Y-13329222D02*
X14167801Y-13433984D01*
X14167801Y-13329222D02*
X14177324Y-13310174D01*
X14177324Y-13310174D02*
X14196372Y-13300650D01*
X14196372Y-13300650D02*
X14224943Y-13300650D01*
X14224943Y-13300650D02*
X14243991Y-13310174D01*
X14243991Y-13310174D02*
X14253515Y-13329222D01*
X14253515Y-13329222D02*
X14253515Y-13433984D01*
X14643991Y-13224460D02*
X14472563Y-13481603D01*
X14901134Y-13233984D02*
X14920182Y-13233984D01*
X14920182Y-13233984D02*
X14939229Y-13243508D01*
X14939229Y-13243508D02*
X14948753Y-13253031D01*
X14948753Y-13253031D02*
X14958277Y-13272079D01*
X14958277Y-13272079D02*
X14967801Y-13310174D01*
X14967801Y-13310174D02*
X14967801Y-13357793D01*
X14967801Y-13357793D02*
X14958277Y-13395888D01*
X14958277Y-13395888D02*
X14948753Y-13414936D01*
X14948753Y-13414936D02*
X14939229Y-13424460D01*
X14939229Y-13424460D02*
X14920182Y-13433984D01*
X14920182Y-13433984D02*
X14901134Y-13433984D01*
X14901134Y-13433984D02*
X14882086Y-13424460D01*
X14882086Y-13424460D02*
X14872563Y-13414936D01*
X14872563Y-13414936D02*
X14863039Y-13395888D01*
X14863039Y-13395888D02*
X14853515Y-13357793D01*
X14853515Y-13357793D02*
X14853515Y-13310174D01*
X14853515Y-13310174D02*
X14863039Y-13272079D01*
X14863039Y-13272079D02*
X14872563Y-13253031D01*
X14872563Y-13253031D02*
X14882086Y-13243508D01*
X14882086Y-13243508D02*
X14901134Y-13233984D01*
X15053515Y-13414936D02*
X15063039Y-13424460D01*
X15063039Y-13424460D02*
X15053515Y-13433984D01*
X15053515Y-13433984D02*
X15043991Y-13424460D01*
X15043991Y-13424460D02*
X15053515Y-13414936D01*
X15053515Y-13414936D02*
X15053515Y-13433984D01*
X15186848Y-13233984D02*
X15205896Y-13233984D01*
X15205896Y-13233984D02*
X15224944Y-13243508D01*
X15224944Y-13243508D02*
X15234467Y-13253031D01*
X15234467Y-13253031D02*
X15243991Y-13272079D01*
X15243991Y-13272079D02*
X15253515Y-13310174D01*
X15253515Y-13310174D02*
X15253515Y-13357793D01*
X15253515Y-13357793D02*
X15243991Y-13395888D01*
X15243991Y-13395888D02*
X15234467Y-13414936D01*
X15234467Y-13414936D02*
X15224944Y-13424460D01*
X15224944Y-13424460D02*
X15205896Y-13433984D01*
X15205896Y-13433984D02*
X15186848Y-13433984D01*
X15186848Y-13433984D02*
X15167801Y-13424460D01*
X15167801Y-13424460D02*
X15158277Y-13414936D01*
X15158277Y-13414936D02*
X15148753Y-13395888D01*
X15148753Y-13395888D02*
X15139229Y-13357793D01*
X15139229Y-13357793D02*
X15139229Y-13310174D01*
X15139229Y-13310174D02*
X15148753Y-13272079D01*
X15148753Y-13272079D02*
X15158277Y-13253031D01*
X15158277Y-13253031D02*
X15167801Y-13243508D01*
X15167801Y-13243508D02*
X15186848Y-13233984D01*
X15443991Y-13433984D02*
X15329706Y-13433984D01*
X15386848Y-13433984D02*
X15386848Y-13233984D01*
X15386848Y-13233984D02*
X15367801Y-13262555D01*
X15367801Y-13262555D02*
X15348753Y-13281603D01*
X15348753Y-13281603D02*
X15329706Y-13291127D01*
X15539229Y-13433984D02*
X15577325Y-13433984D01*
X15577325Y-13433984D02*
X15596372Y-13424460D01*
X15596372Y-13424460D02*
X15605896Y-13414936D01*
X15605896Y-13414936D02*
X15624944Y-13386365D01*
X15624944Y-13386365D02*
X15634467Y-13348269D01*
X15634467Y-13348269D02*
X15634467Y-13272079D01*
X15634467Y-13272079D02*
X15624944Y-13253031D01*
X15624944Y-13253031D02*
X15615420Y-13243508D01*
X15615420Y-13243508D02*
X15596372Y-13233984D01*
X15596372Y-13233984D02*
X15558277Y-13233984D01*
X15558277Y-13233984D02*
X15539229Y-13243508D01*
X15539229Y-13243508D02*
X15529706Y-13253031D01*
X15529706Y-13253031D02*
X15520182Y-13272079D01*
X15520182Y-13272079D02*
X15520182Y-13319698D01*
X15520182Y-13319698D02*
X15529706Y-13338746D01*
X15529706Y-13338746D02*
X15539229Y-13348269D01*
X15539229Y-13348269D02*
X15558277Y-13357793D01*
X15558277Y-13357793D02*
X15596372Y-13357793D01*
X15596372Y-13357793D02*
X15615420Y-13348269D01*
X15615420Y-13348269D02*
X15624944Y-13338746D01*
X15624944Y-13338746D02*
X15634467Y-13319698D01*
X15701134Y-13233984D02*
X15834467Y-13233984D01*
X15834467Y-13233984D02*
X15748753Y-13433984D01*
X15901134Y-13233984D02*
X15901134Y-13272079D01*
X15977325Y-13233984D02*
X15977325Y-13272079D01*
X16272563Y-13510174D02*
X16263039Y-13500650D01*
X16263039Y-13500650D02*
X16243991Y-13472079D01*
X16243991Y-13472079D02*
X16234468Y-13453031D01*
X16234468Y-13453031D02*
X16224944Y-13424460D01*
X16224944Y-13424460D02*
X16215420Y-13376841D01*
X16215420Y-13376841D02*
X16215420Y-13338746D01*
X16215420Y-13338746D02*
X16224944Y-13291127D01*
X16224944Y-13291127D02*
X16234468Y-13262555D01*
X16234468Y-13262555D02*
X16243991Y-13243508D01*
X16243991Y-13243508D02*
X16263039Y-13214936D01*
X16263039Y-13214936D02*
X16272563Y-13205412D01*
X16434468Y-13300650D02*
X16434468Y-13433984D01*
X16386848Y-13224460D02*
X16339229Y-13367317D01*
X16339229Y-13367317D02*
X16463039Y-13367317D01*
X16691610Y-13433984D02*
X16691610Y-13233984D01*
X16777325Y-13433984D02*
X16777325Y-13329222D01*
X16777325Y-13329222D02*
X16767801Y-13310174D01*
X16767801Y-13310174D02*
X16748753Y-13300650D01*
X16748753Y-13300650D02*
X16720182Y-13300650D01*
X16720182Y-13300650D02*
X16701134Y-13310174D01*
X16701134Y-13310174D02*
X16691610Y-13319698D01*
X16901134Y-13433984D02*
X16882087Y-13424460D01*
X16882087Y-13424460D02*
X16872563Y-13414936D01*
X16872563Y-13414936D02*
X16863039Y-13395888D01*
X16863039Y-13395888D02*
X16863039Y-13338746D01*
X16863039Y-13338746D02*
X16872563Y-13319698D01*
X16872563Y-13319698D02*
X16882087Y-13310174D01*
X16882087Y-13310174D02*
X16901134Y-13300650D01*
X16901134Y-13300650D02*
X16929706Y-13300650D01*
X16929706Y-13300650D02*
X16948753Y-13310174D01*
X16948753Y-13310174D02*
X16958277Y-13319698D01*
X16958277Y-13319698D02*
X16967801Y-13338746D01*
X16967801Y-13338746D02*
X16967801Y-13395888D01*
X16967801Y-13395888D02*
X16958277Y-13414936D01*
X16958277Y-13414936D02*
X16948753Y-13424460D01*
X16948753Y-13424460D02*
X16929706Y-13433984D01*
X16929706Y-13433984D02*
X16901134Y-13433984D01*
X17082087Y-13433984D02*
X17063039Y-13424460D01*
X17063039Y-13424460D02*
X17053515Y-13405412D01*
X17053515Y-13405412D02*
X17053515Y-13233984D01*
X17234468Y-13424460D02*
X17215420Y-13433984D01*
X17215420Y-13433984D02*
X17177325Y-13433984D01*
X17177325Y-13433984D02*
X17158277Y-13424460D01*
X17158277Y-13424460D02*
X17148753Y-13405412D01*
X17148753Y-13405412D02*
X17148753Y-13329222D01*
X17148753Y-13329222D02*
X17158277Y-13310174D01*
X17158277Y-13310174D02*
X17177325Y-13300650D01*
X17177325Y-13300650D02*
X17215420Y-13300650D01*
X17215420Y-13300650D02*
X17234468Y-13310174D01*
X17234468Y-13310174D02*
X17243992Y-13329222D01*
X17243992Y-13329222D02*
X17243992Y-13348269D01*
X17243992Y-13348269D02*
X17148753Y-13367317D01*
X17320182Y-13424460D02*
X17339230Y-13433984D01*
X17339230Y-13433984D02*
X17377325Y-13433984D01*
X17377325Y-13433984D02*
X17396373Y-13424460D01*
X17396373Y-13424460D02*
X17405896Y-13405412D01*
X17405896Y-13405412D02*
X17405896Y-13395888D01*
X17405896Y-13395888D02*
X17396373Y-13376841D01*
X17396373Y-13376841D02*
X17377325Y-13367317D01*
X17377325Y-13367317D02*
X17348753Y-13367317D01*
X17348753Y-13367317D02*
X17329706Y-13357793D01*
X17329706Y-13357793D02*
X17320182Y-13338746D01*
X17320182Y-13338746D02*
X17320182Y-13329222D01*
X17320182Y-13329222D02*
X17329706Y-13310174D01*
X17329706Y-13310174D02*
X17348753Y-13300650D01*
X17348753Y-13300650D02*
X17377325Y-13300650D01*
X17377325Y-13300650D02*
X17396373Y-13310174D01*
X17472563Y-13510174D02*
X17482087Y-13500650D01*
X17482087Y-13500650D02*
X17501134Y-13472079D01*
X17501134Y-13472079D02*
X17510658Y-13453031D01*
X17510658Y-13453031D02*
X17520182Y-13424460D01*
X17520182Y-13424460D02*
X17529706Y-13376841D01*
X17529706Y-13376841D02*
X17529706Y-13338746D01*
X17529706Y-13338746D02*
X17520182Y-13291127D01*
X17520182Y-13291127D02*
X17510658Y-13262555D01*
X17510658Y-13262555D02*
X17501134Y-13243508D01*
X17501134Y-13243508D02*
X17482087Y-13214936D01*
X17482087Y-13214936D02*
X17472563Y-13205412D01*
D12*
X12697500Y-13606500D02*
G75*
G02*
X12622500Y-13606500I-37500J0D01*
G01*
X12622500Y-13606500D02*
G75*
G02*
X12697500Y-13606500I37500J0D01*
G01*
D11*
X12996372Y-13497984D02*
X13015420Y-13497984D01*
X13015420Y-13497984D02*
X13034467Y-13507508D01*
X13034467Y-13507508D02*
X13043991Y-13517031D01*
X13043991Y-13517031D02*
X13053515Y-13536079D01*
X13053515Y-13536079D02*
X13063039Y-13574174D01*
X13063039Y-13574174D02*
X13063039Y-13621793D01*
X13063039Y-13621793D02*
X13053515Y-13659888D01*
X13053515Y-13659888D02*
X13043991Y-13678936D01*
X13043991Y-13678936D02*
X13034467Y-13688460D01*
X13034467Y-13688460D02*
X13015420Y-13697984D01*
X13015420Y-13697984D02*
X12996372Y-13697984D01*
X12996372Y-13697984D02*
X12977324Y-13688460D01*
X12977324Y-13688460D02*
X12967801Y-13678936D01*
X12967801Y-13678936D02*
X12958277Y-13659888D01*
X12958277Y-13659888D02*
X12948753Y-13621793D01*
X12948753Y-13621793D02*
X12948753Y-13574174D01*
X12948753Y-13574174D02*
X12958277Y-13536079D01*
X12958277Y-13536079D02*
X12967801Y-13517031D01*
X12967801Y-13517031D02*
X12977324Y-13507508D01*
X12977324Y-13507508D02*
X12996372Y-13497984D01*
X13148753Y-13678936D02*
X13158277Y-13688460D01*
X13158277Y-13688460D02*
X13148753Y-13697984D01*
X13148753Y-13697984D02*
X13139229Y-13688460D01*
X13139229Y-13688460D02*
X13148753Y-13678936D01*
X13148753Y-13678936D02*
X13148753Y-13697984D01*
X13224943Y-13497984D02*
X13358277Y-13497984D01*
X13358277Y-13497984D02*
X13272562Y-13697984D01*
X13529705Y-13497984D02*
X13434467Y-13497984D01*
X13434467Y-13497984D02*
X13424943Y-13593222D01*
X13424943Y-13593222D02*
X13434467Y-13583698D01*
X13434467Y-13583698D02*
X13453515Y-13574174D01*
X13453515Y-13574174D02*
X13501134Y-13574174D01*
X13501134Y-13574174D02*
X13520182Y-13583698D01*
X13520182Y-13583698D02*
X13529705Y-13593222D01*
X13529705Y-13593222D02*
X13539229Y-13612269D01*
X13539229Y-13612269D02*
X13539229Y-13659888D01*
X13539229Y-13659888D02*
X13529705Y-13678936D01*
X13529705Y-13678936D02*
X13520182Y-13688460D01*
X13520182Y-13688460D02*
X13501134Y-13697984D01*
X13501134Y-13697984D02*
X13453515Y-13697984D01*
X13453515Y-13697984D02*
X13434467Y-13688460D01*
X13434467Y-13688460D02*
X13424943Y-13678936D01*
X13663039Y-13497984D02*
X13682086Y-13497984D01*
X13682086Y-13497984D02*
X13701134Y-13507508D01*
X13701134Y-13507508D02*
X13710658Y-13517031D01*
X13710658Y-13517031D02*
X13720182Y-13536079D01*
X13720182Y-13536079D02*
X13729705Y-13574174D01*
X13729705Y-13574174D02*
X13729705Y-13621793D01*
X13729705Y-13621793D02*
X13720182Y-13659888D01*
X13720182Y-13659888D02*
X13710658Y-13678936D01*
X13710658Y-13678936D02*
X13701134Y-13688460D01*
X13701134Y-13688460D02*
X13682086Y-13697984D01*
X13682086Y-13697984D02*
X13663039Y-13697984D01*
X13663039Y-13697984D02*
X13643991Y-13688460D01*
X13643991Y-13688460D02*
X13634467Y-13678936D01*
X13634467Y-13678936D02*
X13624943Y-13659888D01*
X13624943Y-13659888D02*
X13615420Y-13621793D01*
X13615420Y-13621793D02*
X13615420Y-13574174D01*
X13615420Y-13574174D02*
X13624943Y-13536079D01*
X13624943Y-13536079D02*
X13634467Y-13517031D01*
X13634467Y-13517031D02*
X13643991Y-13507508D01*
X13643991Y-13507508D02*
X13663039Y-13497984D01*
X13815420Y-13697984D02*
X13815420Y-13564650D01*
X13815420Y-13583698D02*
X13824943Y-13574174D01*
X13824943Y-13574174D02*
X13843991Y-13564650D01*
X13843991Y-13564650D02*
X13872563Y-13564650D01*
X13872563Y-13564650D02*
X13891610Y-13574174D01*
X13891610Y-13574174D02*
X13901134Y-13593222D01*
X13901134Y-13593222D02*
X13901134Y-13697984D01*
X13901134Y-13593222D02*
X13910658Y-13574174D01*
X13910658Y-13574174D02*
X13929705Y-13564650D01*
X13929705Y-13564650D02*
X13958277Y-13564650D01*
X13958277Y-13564650D02*
X13977324Y-13574174D01*
X13977324Y-13574174D02*
X13986848Y-13593222D01*
X13986848Y-13593222D02*
X13986848Y-13697984D01*
X14082086Y-13697984D02*
X14082086Y-13564650D01*
X14082086Y-13583698D02*
X14091610Y-13574174D01*
X14091610Y-13574174D02*
X14110658Y-13564650D01*
X14110658Y-13564650D02*
X14139229Y-13564650D01*
X14139229Y-13564650D02*
X14158277Y-13574174D01*
X14158277Y-13574174D02*
X14167801Y-13593222D01*
X14167801Y-13593222D02*
X14167801Y-13697984D01*
X14167801Y-13593222D02*
X14177324Y-13574174D01*
X14177324Y-13574174D02*
X14196372Y-13564650D01*
X14196372Y-13564650D02*
X14224943Y-13564650D01*
X14224943Y-13564650D02*
X14243991Y-13574174D01*
X14243991Y-13574174D02*
X14253515Y-13593222D01*
X14253515Y-13593222D02*
X14253515Y-13697984D01*
X14643991Y-13488460D02*
X14472563Y-13745603D01*
X14901134Y-13497984D02*
X14920182Y-13497984D01*
X14920182Y-13497984D02*
X14939229Y-13507508D01*
X14939229Y-13507508D02*
X14948753Y-13517031D01*
X14948753Y-13517031D02*
X14958277Y-13536079D01*
X14958277Y-13536079D02*
X14967801Y-13574174D01*
X14967801Y-13574174D02*
X14967801Y-13621793D01*
X14967801Y-13621793D02*
X14958277Y-13659888D01*
X14958277Y-13659888D02*
X14948753Y-13678936D01*
X14948753Y-13678936D02*
X14939229Y-13688460D01*
X14939229Y-13688460D02*
X14920182Y-13697984D01*
X14920182Y-13697984D02*
X14901134Y-13697984D01*
X14901134Y-13697984D02*
X14882086Y-13688460D01*
X14882086Y-13688460D02*
X14872563Y-13678936D01*
X14872563Y-13678936D02*
X14863039Y-13659888D01*
X14863039Y-13659888D02*
X14853515Y-13621793D01*
X14853515Y-13621793D02*
X14853515Y-13574174D01*
X14853515Y-13574174D02*
X14863039Y-13536079D01*
X14863039Y-13536079D02*
X14872563Y-13517031D01*
X14872563Y-13517031D02*
X14882086Y-13507508D01*
X14882086Y-13507508D02*
X14901134Y-13497984D01*
X15053515Y-13678936D02*
X15063039Y-13688460D01*
X15063039Y-13688460D02*
X15053515Y-13697984D01*
X15053515Y-13697984D02*
X15043991Y-13688460D01*
X15043991Y-13688460D02*
X15053515Y-13678936D01*
X15053515Y-13678936D02*
X15053515Y-13697984D01*
X15186848Y-13497984D02*
X15205896Y-13497984D01*
X15205896Y-13497984D02*
X15224944Y-13507508D01*
X15224944Y-13507508D02*
X15234467Y-13517031D01*
X15234467Y-13517031D02*
X15243991Y-13536079D01*
X15243991Y-13536079D02*
X15253515Y-13574174D01*
X15253515Y-13574174D02*
X15253515Y-13621793D01*
X15253515Y-13621793D02*
X15243991Y-13659888D01*
X15243991Y-13659888D02*
X15234467Y-13678936D01*
X15234467Y-13678936D02*
X15224944Y-13688460D01*
X15224944Y-13688460D02*
X15205896Y-13697984D01*
X15205896Y-13697984D02*
X15186848Y-13697984D01*
X15186848Y-13697984D02*
X15167801Y-13688460D01*
X15167801Y-13688460D02*
X15158277Y-13678936D01*
X15158277Y-13678936D02*
X15148753Y-13659888D01*
X15148753Y-13659888D02*
X15139229Y-13621793D01*
X15139229Y-13621793D02*
X15139229Y-13574174D01*
X15139229Y-13574174D02*
X15148753Y-13536079D01*
X15148753Y-13536079D02*
X15158277Y-13517031D01*
X15158277Y-13517031D02*
X15167801Y-13507508D01*
X15167801Y-13507508D02*
X15186848Y-13497984D01*
X15329706Y-13517031D02*
X15339229Y-13507508D01*
X15339229Y-13507508D02*
X15358277Y-13497984D01*
X15358277Y-13497984D02*
X15405896Y-13497984D01*
X15405896Y-13497984D02*
X15424944Y-13507508D01*
X15424944Y-13507508D02*
X15434467Y-13517031D01*
X15434467Y-13517031D02*
X15443991Y-13536079D01*
X15443991Y-13536079D02*
X15443991Y-13555127D01*
X15443991Y-13555127D02*
X15434467Y-13583698D01*
X15434467Y-13583698D02*
X15320182Y-13697984D01*
X15320182Y-13697984D02*
X15443991Y-13697984D01*
X15539229Y-13697984D02*
X15577325Y-13697984D01*
X15577325Y-13697984D02*
X15596372Y-13688460D01*
X15596372Y-13688460D02*
X15605896Y-13678936D01*
X15605896Y-13678936D02*
X15624944Y-13650365D01*
X15624944Y-13650365D02*
X15634467Y-13612269D01*
X15634467Y-13612269D02*
X15634467Y-13536079D01*
X15634467Y-13536079D02*
X15624944Y-13517031D01*
X15624944Y-13517031D02*
X15615420Y-13507508D01*
X15615420Y-13507508D02*
X15596372Y-13497984D01*
X15596372Y-13497984D02*
X15558277Y-13497984D01*
X15558277Y-13497984D02*
X15539229Y-13507508D01*
X15539229Y-13507508D02*
X15529706Y-13517031D01*
X15529706Y-13517031D02*
X15520182Y-13536079D01*
X15520182Y-13536079D02*
X15520182Y-13583698D01*
X15520182Y-13583698D02*
X15529706Y-13602746D01*
X15529706Y-13602746D02*
X15539229Y-13612269D01*
X15539229Y-13612269D02*
X15558277Y-13621793D01*
X15558277Y-13621793D02*
X15596372Y-13621793D01*
X15596372Y-13621793D02*
X15615420Y-13612269D01*
X15615420Y-13612269D02*
X15624944Y-13602746D01*
X15624944Y-13602746D02*
X15634467Y-13583698D01*
X15815420Y-13497984D02*
X15720182Y-13497984D01*
X15720182Y-13497984D02*
X15710658Y-13593222D01*
X15710658Y-13593222D02*
X15720182Y-13583698D01*
X15720182Y-13583698D02*
X15739229Y-13574174D01*
X15739229Y-13574174D02*
X15786848Y-13574174D01*
X15786848Y-13574174D02*
X15805896Y-13583698D01*
X15805896Y-13583698D02*
X15815420Y-13593222D01*
X15815420Y-13593222D02*
X15824944Y-13612269D01*
X15824944Y-13612269D02*
X15824944Y-13659888D01*
X15824944Y-13659888D02*
X15815420Y-13678936D01*
X15815420Y-13678936D02*
X15805896Y-13688460D01*
X15805896Y-13688460D02*
X15786848Y-13697984D01*
X15786848Y-13697984D02*
X15739229Y-13697984D01*
X15739229Y-13697984D02*
X15720182Y-13688460D01*
X15720182Y-13688460D02*
X15710658Y-13678936D01*
X15901134Y-13497984D02*
X15901134Y-13536079D01*
X15977325Y-13497984D02*
X15977325Y-13536079D01*
X16272563Y-13774174D02*
X16263039Y-13764650D01*
X16263039Y-13764650D02*
X16243991Y-13736079D01*
X16243991Y-13736079D02*
X16234468Y-13717031D01*
X16234468Y-13717031D02*
X16224944Y-13688460D01*
X16224944Y-13688460D02*
X16215420Y-13640841D01*
X16215420Y-13640841D02*
X16215420Y-13602746D01*
X16215420Y-13602746D02*
X16224944Y-13555127D01*
X16224944Y-13555127D02*
X16234468Y-13526555D01*
X16234468Y-13526555D02*
X16243991Y-13507508D01*
X16243991Y-13507508D02*
X16263039Y-13478936D01*
X16263039Y-13478936D02*
X16272563Y-13469412D01*
X16358277Y-13697984D02*
X16396372Y-13697984D01*
X16396372Y-13697984D02*
X16415420Y-13688460D01*
X16415420Y-13688460D02*
X16424944Y-13678936D01*
X16424944Y-13678936D02*
X16443991Y-13650365D01*
X16443991Y-13650365D02*
X16453515Y-13612269D01*
X16453515Y-13612269D02*
X16453515Y-13536079D01*
X16453515Y-13536079D02*
X16443991Y-13517031D01*
X16443991Y-13517031D02*
X16434468Y-13507508D01*
X16434468Y-13507508D02*
X16415420Y-13497984D01*
X16415420Y-13497984D02*
X16377325Y-13497984D01*
X16377325Y-13497984D02*
X16358277Y-13507508D01*
X16358277Y-13507508D02*
X16348753Y-13517031D01*
X16348753Y-13517031D02*
X16339229Y-13536079D01*
X16339229Y-13536079D02*
X16339229Y-13583698D01*
X16339229Y-13583698D02*
X16348753Y-13602746D01*
X16348753Y-13602746D02*
X16358277Y-13612269D01*
X16358277Y-13612269D02*
X16377325Y-13621793D01*
X16377325Y-13621793D02*
X16415420Y-13621793D01*
X16415420Y-13621793D02*
X16434468Y-13612269D01*
X16434468Y-13612269D02*
X16443991Y-13602746D01*
X16443991Y-13602746D02*
X16453515Y-13583698D01*
X16691610Y-13697984D02*
X16691610Y-13497984D01*
X16777325Y-13697984D02*
X16777325Y-13593222D01*
X16777325Y-13593222D02*
X16767801Y-13574174D01*
X16767801Y-13574174D02*
X16748753Y-13564650D01*
X16748753Y-13564650D02*
X16720182Y-13564650D01*
X16720182Y-13564650D02*
X16701134Y-13574174D01*
X16701134Y-13574174D02*
X16691610Y-13583698D01*
X16901134Y-13697984D02*
X16882087Y-13688460D01*
X16882087Y-13688460D02*
X16872563Y-13678936D01*
X16872563Y-13678936D02*
X16863039Y-13659888D01*
X16863039Y-13659888D02*
X16863039Y-13602746D01*
X16863039Y-13602746D02*
X16872563Y-13583698D01*
X16872563Y-13583698D02*
X16882087Y-13574174D01*
X16882087Y-13574174D02*
X16901134Y-13564650D01*
X16901134Y-13564650D02*
X16929706Y-13564650D01*
X16929706Y-13564650D02*
X16948753Y-13574174D01*
X16948753Y-13574174D02*
X16958277Y-13583698D01*
X16958277Y-13583698D02*
X16967801Y-13602746D01*
X16967801Y-13602746D02*
X16967801Y-13659888D01*
X16967801Y-13659888D02*
X16958277Y-13678936D01*
X16958277Y-13678936D02*
X16948753Y-13688460D01*
X16948753Y-13688460D02*
X16929706Y-13697984D01*
X16929706Y-13697984D02*
X16901134Y-13697984D01*
X17082087Y-13697984D02*
X17063039Y-13688460D01*
X17063039Y-13688460D02*
X17053515Y-13669412D01*
X17053515Y-13669412D02*
X17053515Y-13497984D01*
X17234468Y-13688460D02*
X17215420Y-13697984D01*
X17215420Y-13697984D02*
X17177325Y-13697984D01*
X17177325Y-13697984D02*
X17158277Y-13688460D01*
X17158277Y-13688460D02*
X17148753Y-13669412D01*
X17148753Y-13669412D02*
X17148753Y-13593222D01*
X17148753Y-13593222D02*
X17158277Y-13574174D01*
X17158277Y-13574174D02*
X17177325Y-13564650D01*
X17177325Y-13564650D02*
X17215420Y-13564650D01*
X17215420Y-13564650D02*
X17234468Y-13574174D01*
X17234468Y-13574174D02*
X17243992Y-13593222D01*
X17243992Y-13593222D02*
X17243992Y-13612269D01*
X17243992Y-13612269D02*
X17148753Y-13631317D01*
X17320182Y-13688460D02*
X17339230Y-13697984D01*
X17339230Y-13697984D02*
X17377325Y-13697984D01*
X17377325Y-13697984D02*
X17396373Y-13688460D01*
X17396373Y-13688460D02*
X17405896Y-13669412D01*
X17405896Y-13669412D02*
X17405896Y-13659888D01*
X17405896Y-13659888D02*
X17396373Y-13640841D01*
X17396373Y-13640841D02*
X17377325Y-13631317D01*
X17377325Y-13631317D02*
X17348753Y-13631317D01*
X17348753Y-13631317D02*
X17329706Y-13621793D01*
X17329706Y-13621793D02*
X17320182Y-13602746D01*
X17320182Y-13602746D02*
X17320182Y-13593222D01*
X17320182Y-13593222D02*
X17329706Y-13574174D01*
X17329706Y-13574174D02*
X17348753Y-13564650D01*
X17348753Y-13564650D02*
X17377325Y-13564650D01*
X17377325Y-13564650D02*
X17396373Y-13574174D01*
X17472563Y-13774174D02*
X17482087Y-13764650D01*
X17482087Y-13764650D02*
X17501134Y-13736079D01*
X17501134Y-13736079D02*
X17510658Y-13717031D01*
X17510658Y-13717031D02*
X17520182Y-13688460D01*
X17520182Y-13688460D02*
X17529706Y-13640841D01*
X17529706Y-13640841D02*
X17529706Y-13602746D01*
X17529706Y-13602746D02*
X17520182Y-13555127D01*
X17520182Y-13555127D02*
X17510658Y-13526555D01*
X17510658Y-13526555D02*
X17501134Y-13507508D01*
X17501134Y-13507508D02*
X17482087Y-13478936D01*
X17482087Y-13478936D02*
X17472563Y-13469412D01*
M02*
