%TF.GenerationSoftware,KiCad,Pcbnew,8.0.5*%
%TF.CreationDate,2025-01-09T17:24:21-08:00*%
%TF.ProjectId,hyperion,68797065-7269-46f6-9e2e-6b696361645f,rev?*%
%TF.SameCoordinates,Original*%
%TF.FileFunction,Legend,Top*%
%TF.FilePolarity,Positive*%
%FSLAX46Y46*%
G04 Gerber Fmt 4.6, Leading zero omitted, Abs format (unit mm)*
G04 Created by KiCad (PCBNEW 8.0.5) date 2025-01-09 17:24:21*
%MOMM*%
%LPD*%
G01*
G04 APERTURE LIST*
G04 Aperture macros list*
%AMRoundRect*
0 Rectangle with rounded corners*
0 $1 Rounding radius*
0 $2 $3 $4 $5 $6 $7 $8 $9 X,Y pos of 4 corners*
0 Add a 4 corners polygon primitive as box body*
4,1,4,$2,$3,$4,$5,$6,$7,$8,$9,$2,$3,0*
0 Add four circle primitives for the rounded corners*
1,1,$1+$1,$2,$3*
1,1,$1+$1,$4,$5*
1,1,$1+$1,$6,$7*
1,1,$1+$1,$8,$9*
0 Add four rect primitives between the rounded corners*
20,1,$1+$1,$2,$3,$4,$5,0*
20,1,$1+$1,$4,$5,$6,$7,0*
20,1,$1+$1,$6,$7,$8,$9,0*
20,1,$1+$1,$8,$9,$2,$3,0*%
G04 Aperture macros list end*
%ADD10C,0.127000*%
%ADD11C,0.150000*%
%ADD12C,0.120000*%
%ADD13RoundRect,0.250000X-0.412500X-0.650000X0.412500X-0.650000X0.412500X0.650000X-0.412500X0.650000X0*%
%ADD14RoundRect,0.250000X0.400000X0.625000X-0.400000X0.625000X-0.400000X-0.625000X0.400000X-0.625000X0*%
%ADD15RoundRect,0.250000X-0.625000X0.400000X-0.625000X-0.400000X0.625000X-0.400000X0.625000X0.400000X0*%
%ADD16O,1.050000X1.500000*%
%ADD17R,1.050000X1.500000*%
%ADD18C,1.000000*%
%ADD19R,1.000000X1.000000*%
%ADD20RoundRect,0.250000X0.650000X-0.412500X0.650000X0.412500X-0.650000X0.412500X-0.650000X-0.412500X0*%
%ADD21RoundRect,0.250000X0.625000X-0.400000X0.625000X0.400000X-0.625000X0.400000X-0.625000X-0.400000X0*%
%ADD22RoundRect,0.250000X-0.650000X0.412500X-0.650000X-0.412500X0.650000X-0.412500X0.650000X0.412500X0*%
G04 APERTURE END LIST*
D10*
X130895094Y-107552792D02*
X130895094Y-106552792D01*
X130895094Y-106695649D02*
X130966523Y-106624221D01*
X130966523Y-106624221D02*
X131109380Y-106552792D01*
X131109380Y-106552792D02*
X131323666Y-106552792D01*
X131323666Y-106552792D02*
X131466523Y-106624221D01*
X131466523Y-106624221D02*
X131537952Y-106767078D01*
X131537952Y-106767078D02*
X131537952Y-107552792D01*
X131537952Y-106767078D02*
X131609380Y-106624221D01*
X131609380Y-106624221D02*
X131752237Y-106552792D01*
X131752237Y-106552792D02*
X131966523Y-106552792D01*
X131966523Y-106552792D02*
X132109380Y-106624221D01*
X132109380Y-106624221D02*
X132180809Y-106767078D01*
X132180809Y-106767078D02*
X132180809Y-107552792D01*
X132895094Y-107552792D02*
X132895094Y-106552792D01*
X132895094Y-106052792D02*
X132823666Y-106124221D01*
X132823666Y-106124221D02*
X132895094Y-106195649D01*
X132895094Y-106195649D02*
X132966523Y-106124221D01*
X132966523Y-106124221D02*
X132895094Y-106052792D01*
X132895094Y-106052792D02*
X132895094Y-106195649D01*
X133609380Y-106552792D02*
X133609380Y-107552792D01*
X133609380Y-106695649D02*
X133680809Y-106624221D01*
X133680809Y-106624221D02*
X133823666Y-106552792D01*
X133823666Y-106552792D02*
X134037952Y-106552792D01*
X134037952Y-106552792D02*
X134180809Y-106624221D01*
X134180809Y-106624221D02*
X134252238Y-106767078D01*
X134252238Y-106767078D02*
X134252238Y-107552792D01*
X134966523Y-107552792D02*
X134966523Y-106552792D01*
X134966523Y-106052792D02*
X134895095Y-106124221D01*
X134895095Y-106124221D02*
X134966523Y-106195649D01*
X134966523Y-106195649D02*
X135037952Y-106124221D01*
X135037952Y-106124221D02*
X134966523Y-106052792D01*
X134966523Y-106052792D02*
X134966523Y-106195649D01*
X130895094Y-109967708D02*
X130895094Y-108467708D01*
X131537952Y-109967708D02*
X131537952Y-109181994D01*
X131537952Y-109181994D02*
X131466523Y-109039137D01*
X131466523Y-109039137D02*
X131323666Y-108967708D01*
X131323666Y-108967708D02*
X131109380Y-108967708D01*
X131109380Y-108967708D02*
X130966523Y-109039137D01*
X130966523Y-109039137D02*
X130895094Y-109110565D01*
X132109380Y-108967708D02*
X132466523Y-109967708D01*
X132823666Y-108967708D02*
X132466523Y-109967708D01*
X132466523Y-109967708D02*
X132323666Y-110324851D01*
X132323666Y-110324851D02*
X132252237Y-110396280D01*
X132252237Y-110396280D02*
X132109380Y-110467708D01*
X133395094Y-108967708D02*
X133395094Y-110467708D01*
X133395094Y-109039137D02*
X133537952Y-108967708D01*
X133537952Y-108967708D02*
X133823666Y-108967708D01*
X133823666Y-108967708D02*
X133966523Y-109039137D01*
X133966523Y-109039137D02*
X134037952Y-109110565D01*
X134037952Y-109110565D02*
X134109380Y-109253422D01*
X134109380Y-109253422D02*
X134109380Y-109681994D01*
X134109380Y-109681994D02*
X134037952Y-109824851D01*
X134037952Y-109824851D02*
X133966523Y-109896280D01*
X133966523Y-109896280D02*
X133823666Y-109967708D01*
X133823666Y-109967708D02*
X133537952Y-109967708D01*
X133537952Y-109967708D02*
X133395094Y-109896280D01*
X135323666Y-109896280D02*
X135180809Y-109967708D01*
X135180809Y-109967708D02*
X134895095Y-109967708D01*
X134895095Y-109967708D02*
X134752237Y-109896280D01*
X134752237Y-109896280D02*
X134680809Y-109753422D01*
X134680809Y-109753422D02*
X134680809Y-109181994D01*
X134680809Y-109181994D02*
X134752237Y-109039137D01*
X134752237Y-109039137D02*
X134895095Y-108967708D01*
X134895095Y-108967708D02*
X135180809Y-108967708D01*
X135180809Y-108967708D02*
X135323666Y-109039137D01*
X135323666Y-109039137D02*
X135395095Y-109181994D01*
X135395095Y-109181994D02*
X135395095Y-109324851D01*
X135395095Y-109324851D02*
X134680809Y-109467708D01*
X136037951Y-109967708D02*
X136037951Y-108967708D01*
X136037951Y-109253422D02*
X136109380Y-109110565D01*
X136109380Y-109110565D02*
X136180809Y-109039137D01*
X136180809Y-109039137D02*
X136323666Y-108967708D01*
X136323666Y-108967708D02*
X136466523Y-108967708D01*
X136966522Y-109967708D02*
X136966522Y-108967708D01*
X136966522Y-108467708D02*
X136895094Y-108539137D01*
X136895094Y-108539137D02*
X136966522Y-108610565D01*
X136966522Y-108610565D02*
X137037951Y-108539137D01*
X137037951Y-108539137D02*
X136966522Y-108467708D01*
X136966522Y-108467708D02*
X136966522Y-108610565D01*
X137895094Y-109967708D02*
X137752237Y-109896280D01*
X137752237Y-109896280D02*
X137680808Y-109824851D01*
X137680808Y-109824851D02*
X137609380Y-109681994D01*
X137609380Y-109681994D02*
X137609380Y-109253422D01*
X137609380Y-109253422D02*
X137680808Y-109110565D01*
X137680808Y-109110565D02*
X137752237Y-109039137D01*
X137752237Y-109039137D02*
X137895094Y-108967708D01*
X137895094Y-108967708D02*
X138109380Y-108967708D01*
X138109380Y-108967708D02*
X138252237Y-109039137D01*
X138252237Y-109039137D02*
X138323666Y-109110565D01*
X138323666Y-109110565D02*
X138395094Y-109253422D01*
X138395094Y-109253422D02*
X138395094Y-109681994D01*
X138395094Y-109681994D02*
X138323666Y-109824851D01*
X138323666Y-109824851D02*
X138252237Y-109896280D01*
X138252237Y-109896280D02*
X138109380Y-109967708D01*
X138109380Y-109967708D02*
X137895094Y-109967708D01*
X139037951Y-108967708D02*
X139037951Y-109967708D01*
X139037951Y-109110565D02*
X139109380Y-109039137D01*
X139109380Y-109039137D02*
X139252237Y-108967708D01*
X139252237Y-108967708D02*
X139466523Y-108967708D01*
X139466523Y-108967708D02*
X139609380Y-109039137D01*
X139609380Y-109039137D02*
X139680809Y-109181994D01*
X139680809Y-109181994D02*
X139680809Y-109967708D01*
X132037951Y-112239767D02*
X132109380Y-112311196D01*
X132109380Y-112311196D02*
X132037951Y-112382624D01*
X132037951Y-112382624D02*
X131966523Y-112311196D01*
X131966523Y-112311196D02*
X132037951Y-112239767D01*
X132037951Y-112239767D02*
X132037951Y-112382624D01*
X132037951Y-111454053D02*
X132109380Y-111525481D01*
X132109380Y-111525481D02*
X132037951Y-111596910D01*
X132037951Y-111596910D02*
X131966523Y-111525481D01*
X131966523Y-111525481D02*
X132037951Y-111454053D01*
X132037951Y-111454053D02*
X132037951Y-111596910D01*
X132609380Y-110882624D02*
X133537952Y-110882624D01*
X133537952Y-110882624D02*
X133037952Y-111454053D01*
X133037952Y-111454053D02*
X133252237Y-111454053D01*
X133252237Y-111454053D02*
X133395095Y-111525481D01*
X133395095Y-111525481D02*
X133466523Y-111596910D01*
X133466523Y-111596910D02*
X133537952Y-111739767D01*
X133537952Y-111739767D02*
X133537952Y-112096910D01*
X133537952Y-112096910D02*
X133466523Y-112239767D01*
X133466523Y-112239767D02*
X133395095Y-112311196D01*
X133395095Y-112311196D02*
X133252237Y-112382624D01*
X133252237Y-112382624D02*
X132823666Y-112382624D01*
X132823666Y-112382624D02*
X132680809Y-112311196D01*
X132680809Y-112311196D02*
X132609380Y-112239767D01*
D11*
X127339791Y-124203619D02*
X127339791Y-123203619D01*
X127815981Y-124203619D02*
X127815981Y-123203619D01*
X127815981Y-123203619D02*
X128387409Y-124203619D01*
X128387409Y-124203619D02*
X128387409Y-123203619D01*
X141138400Y-125692819D02*
X141328876Y-125692819D01*
X141328876Y-125692819D02*
X141424114Y-125740438D01*
X141424114Y-125740438D02*
X141519352Y-125835676D01*
X141519352Y-125835676D02*
X141566971Y-126026152D01*
X141566971Y-126026152D02*
X141566971Y-126359485D01*
X141566971Y-126359485D02*
X141519352Y-126549961D01*
X141519352Y-126549961D02*
X141424114Y-126645200D01*
X141424114Y-126645200D02*
X141328876Y-126692819D01*
X141328876Y-126692819D02*
X141138400Y-126692819D01*
X141138400Y-126692819D02*
X141043162Y-126645200D01*
X141043162Y-126645200D02*
X140947924Y-126549961D01*
X140947924Y-126549961D02*
X140900305Y-126359485D01*
X140900305Y-126359485D02*
X140900305Y-126026152D01*
X140900305Y-126026152D02*
X140947924Y-125835676D01*
X140947924Y-125835676D02*
X141043162Y-125740438D01*
X141043162Y-125740438D02*
X141138400Y-125692819D01*
X141995543Y-125692819D02*
X141995543Y-126502342D01*
X141995543Y-126502342D02*
X142043162Y-126597580D01*
X142043162Y-126597580D02*
X142090781Y-126645200D01*
X142090781Y-126645200D02*
X142186019Y-126692819D01*
X142186019Y-126692819D02*
X142376495Y-126692819D01*
X142376495Y-126692819D02*
X142471733Y-126645200D01*
X142471733Y-126645200D02*
X142519352Y-126597580D01*
X142519352Y-126597580D02*
X142566971Y-126502342D01*
X142566971Y-126502342D02*
X142566971Y-125692819D01*
X142900305Y-125692819D02*
X143471733Y-125692819D01*
X143186019Y-126692819D02*
X143186019Y-125692819D01*
X136941086Y-106449066D02*
X137702991Y-106449066D01*
X137322038Y-106830019D02*
X137322038Y-106068114D01*
X138226800Y-106830019D02*
X138417276Y-106830019D01*
X138417276Y-106830019D02*
X138512514Y-106782400D01*
X138512514Y-106782400D02*
X138560133Y-106734780D01*
X138560133Y-106734780D02*
X138655371Y-106591923D01*
X138655371Y-106591923D02*
X138702990Y-106401447D01*
X138702990Y-106401447D02*
X138702990Y-106020495D01*
X138702990Y-106020495D02*
X138655371Y-105925257D01*
X138655371Y-105925257D02*
X138607752Y-105877638D01*
X138607752Y-105877638D02*
X138512514Y-105830019D01*
X138512514Y-105830019D02*
X138322038Y-105830019D01*
X138322038Y-105830019D02*
X138226800Y-105877638D01*
X138226800Y-105877638D02*
X138179181Y-105925257D01*
X138179181Y-105925257D02*
X138131562Y-106020495D01*
X138131562Y-106020495D02*
X138131562Y-106258590D01*
X138131562Y-106258590D02*
X138179181Y-106353828D01*
X138179181Y-106353828D02*
X138226800Y-106401447D01*
X138226800Y-106401447D02*
X138322038Y-106449066D01*
X138322038Y-106449066D02*
X138512514Y-106449066D01*
X138512514Y-106449066D02*
X138607752Y-106401447D01*
X138607752Y-106401447D02*
X138655371Y-106353828D01*
X138655371Y-106353828D02*
X138702990Y-106258590D01*
X138988705Y-105830019D02*
X139322038Y-106830019D01*
X139322038Y-106830019D02*
X139655371Y-105830019D01*
X132518210Y-125816590D02*
X133470591Y-125816590D01*
X132708686Y-126102304D02*
X133280114Y-126102304D01*
X132994400Y-125388019D02*
X132994400Y-125816590D01*
X133089638Y-126388019D02*
X132899162Y-126388019D01*
X136434533Y-114710380D02*
X136386914Y-114758000D01*
X136386914Y-114758000D02*
X136244057Y-114805619D01*
X136244057Y-114805619D02*
X136148819Y-114805619D01*
X136148819Y-114805619D02*
X136005962Y-114758000D01*
X136005962Y-114758000D02*
X135910724Y-114662761D01*
X135910724Y-114662761D02*
X135863105Y-114567523D01*
X135863105Y-114567523D02*
X135815486Y-114377047D01*
X135815486Y-114377047D02*
X135815486Y-114234190D01*
X135815486Y-114234190D02*
X135863105Y-114043714D01*
X135863105Y-114043714D02*
X135910724Y-113948476D01*
X135910724Y-113948476D02*
X136005962Y-113853238D01*
X136005962Y-113853238D02*
X136148819Y-113805619D01*
X136148819Y-113805619D02*
X136244057Y-113805619D01*
X136244057Y-113805619D02*
X136386914Y-113853238D01*
X136386914Y-113853238D02*
X136434533Y-113900857D01*
X136815486Y-113900857D02*
X136863105Y-113853238D01*
X136863105Y-113853238D02*
X136958343Y-113805619D01*
X136958343Y-113805619D02*
X137196438Y-113805619D01*
X137196438Y-113805619D02*
X137291676Y-113853238D01*
X137291676Y-113853238D02*
X137339295Y-113900857D01*
X137339295Y-113900857D02*
X137386914Y-113996095D01*
X137386914Y-113996095D02*
X137386914Y-114091333D01*
X137386914Y-114091333D02*
X137339295Y-114234190D01*
X137339295Y-114234190D02*
X136767867Y-114805619D01*
X136767867Y-114805619D02*
X137386914Y-114805619D01*
X143749733Y-113484819D02*
X143416400Y-113008628D01*
X143178305Y-113484819D02*
X143178305Y-112484819D01*
X143178305Y-112484819D02*
X143559257Y-112484819D01*
X143559257Y-112484819D02*
X143654495Y-112532438D01*
X143654495Y-112532438D02*
X143702114Y-112580057D01*
X143702114Y-112580057D02*
X143749733Y-112675295D01*
X143749733Y-112675295D02*
X143749733Y-112818152D01*
X143749733Y-112818152D02*
X143702114Y-112913390D01*
X143702114Y-112913390D02*
X143654495Y-112961009D01*
X143654495Y-112961009D02*
X143559257Y-113008628D01*
X143559257Y-113008628D02*
X143178305Y-113008628D01*
X144654495Y-112484819D02*
X144178305Y-112484819D01*
X144178305Y-112484819D02*
X144130686Y-112961009D01*
X144130686Y-112961009D02*
X144178305Y-112913390D01*
X144178305Y-112913390D02*
X144273543Y-112865771D01*
X144273543Y-112865771D02*
X144511638Y-112865771D01*
X144511638Y-112865771D02*
X144606876Y-112913390D01*
X144606876Y-112913390D02*
X144654495Y-112961009D01*
X144654495Y-112961009D02*
X144702114Y-113056247D01*
X144702114Y-113056247D02*
X144702114Y-113294342D01*
X144702114Y-113294342D02*
X144654495Y-113389580D01*
X144654495Y-113389580D02*
X144606876Y-113437200D01*
X144606876Y-113437200D02*
X144511638Y-113484819D01*
X144511638Y-113484819D02*
X144273543Y-113484819D01*
X144273543Y-113484819D02*
X144178305Y-113437200D01*
X144178305Y-113437200D02*
X144130686Y-113389580D01*
X128484333Y-119886219D02*
X128151000Y-119410028D01*
X127912905Y-119886219D02*
X127912905Y-118886219D01*
X127912905Y-118886219D02*
X128293857Y-118886219D01*
X128293857Y-118886219D02*
X128389095Y-118933838D01*
X128389095Y-118933838D02*
X128436714Y-118981457D01*
X128436714Y-118981457D02*
X128484333Y-119076695D01*
X128484333Y-119076695D02*
X128484333Y-119219552D01*
X128484333Y-119219552D02*
X128436714Y-119314790D01*
X128436714Y-119314790D02*
X128389095Y-119362409D01*
X128389095Y-119362409D02*
X128293857Y-119410028D01*
X128293857Y-119410028D02*
X127912905Y-119410028D01*
X128865286Y-118981457D02*
X128912905Y-118933838D01*
X128912905Y-118933838D02*
X129008143Y-118886219D01*
X129008143Y-118886219D02*
X129246238Y-118886219D01*
X129246238Y-118886219D02*
X129341476Y-118933838D01*
X129341476Y-118933838D02*
X129389095Y-118981457D01*
X129389095Y-118981457D02*
X129436714Y-119076695D01*
X129436714Y-119076695D02*
X129436714Y-119171933D01*
X129436714Y-119171933D02*
X129389095Y-119314790D01*
X129389095Y-119314790D02*
X128817667Y-119886219D01*
X128817667Y-119886219D02*
X129436714Y-119886219D01*
X135337561Y-121860457D02*
X135242323Y-121812838D01*
X135242323Y-121812838D02*
X135147085Y-121717600D01*
X135147085Y-121717600D02*
X135004228Y-121574742D01*
X135004228Y-121574742D02*
X134908990Y-121527123D01*
X134908990Y-121527123D02*
X134813752Y-121527123D01*
X134861371Y-121765219D02*
X134766133Y-121717600D01*
X134766133Y-121717600D02*
X134670895Y-121622361D01*
X134670895Y-121622361D02*
X134623276Y-121431885D01*
X134623276Y-121431885D02*
X134623276Y-121098552D01*
X134623276Y-121098552D02*
X134670895Y-120908076D01*
X134670895Y-120908076D02*
X134766133Y-120812838D01*
X134766133Y-120812838D02*
X134861371Y-120765219D01*
X134861371Y-120765219D02*
X135051847Y-120765219D01*
X135051847Y-120765219D02*
X135147085Y-120812838D01*
X135147085Y-120812838D02*
X135242323Y-120908076D01*
X135242323Y-120908076D02*
X135289942Y-121098552D01*
X135289942Y-121098552D02*
X135289942Y-121431885D01*
X135289942Y-121431885D02*
X135242323Y-121622361D01*
X135242323Y-121622361D02*
X135147085Y-121717600D01*
X135147085Y-121717600D02*
X135051847Y-121765219D01*
X135051847Y-121765219D02*
X134861371Y-121765219D01*
X136242323Y-121765219D02*
X135670895Y-121765219D01*
X135956609Y-121765219D02*
X135956609Y-120765219D01*
X135956609Y-120765219D02*
X135861371Y-120908076D01*
X135861371Y-120908076D02*
X135766133Y-121003314D01*
X135766133Y-121003314D02*
X135670895Y-121050933D01*
X143262361Y-115662857D02*
X143167123Y-115615238D01*
X143167123Y-115615238D02*
X143071885Y-115520000D01*
X143071885Y-115520000D02*
X142929028Y-115377142D01*
X142929028Y-115377142D02*
X142833790Y-115329523D01*
X142833790Y-115329523D02*
X142738552Y-115329523D01*
X142786171Y-115567619D02*
X142690933Y-115520000D01*
X142690933Y-115520000D02*
X142595695Y-115424761D01*
X142595695Y-115424761D02*
X142548076Y-115234285D01*
X142548076Y-115234285D02*
X142548076Y-114900952D01*
X142548076Y-114900952D02*
X142595695Y-114710476D01*
X142595695Y-114710476D02*
X142690933Y-114615238D01*
X142690933Y-114615238D02*
X142786171Y-114567619D01*
X142786171Y-114567619D02*
X142976647Y-114567619D01*
X142976647Y-114567619D02*
X143071885Y-114615238D01*
X143071885Y-114615238D02*
X143167123Y-114710476D01*
X143167123Y-114710476D02*
X143214742Y-114900952D01*
X143214742Y-114900952D02*
X143214742Y-115234285D01*
X143214742Y-115234285D02*
X143167123Y-115424761D01*
X143167123Y-115424761D02*
X143071885Y-115520000D01*
X143071885Y-115520000D02*
X142976647Y-115567619D01*
X142976647Y-115567619D02*
X142786171Y-115567619D01*
X143548076Y-114567619D02*
X144167123Y-114567619D01*
X144167123Y-114567619D02*
X143833790Y-114948571D01*
X143833790Y-114948571D02*
X143976647Y-114948571D01*
X143976647Y-114948571D02*
X144071885Y-114996190D01*
X144071885Y-114996190D02*
X144119504Y-115043809D01*
X144119504Y-115043809D02*
X144167123Y-115139047D01*
X144167123Y-115139047D02*
X144167123Y-115377142D01*
X144167123Y-115377142D02*
X144119504Y-115472380D01*
X144119504Y-115472380D02*
X144071885Y-115520000D01*
X144071885Y-115520000D02*
X143976647Y-115567619D01*
X143976647Y-115567619D02*
X143690933Y-115567619D01*
X143690933Y-115567619D02*
X143595695Y-115520000D01*
X143595695Y-115520000D02*
X143548076Y-115472380D01*
X137775961Y-126584857D02*
X137680723Y-126537238D01*
X137680723Y-126537238D02*
X137585485Y-126442000D01*
X137585485Y-126442000D02*
X137442628Y-126299142D01*
X137442628Y-126299142D02*
X137347390Y-126251523D01*
X137347390Y-126251523D02*
X137252152Y-126251523D01*
X137299771Y-126489619D02*
X137204533Y-126442000D01*
X137204533Y-126442000D02*
X137109295Y-126346761D01*
X137109295Y-126346761D02*
X137061676Y-126156285D01*
X137061676Y-126156285D02*
X137061676Y-125822952D01*
X137061676Y-125822952D02*
X137109295Y-125632476D01*
X137109295Y-125632476D02*
X137204533Y-125537238D01*
X137204533Y-125537238D02*
X137299771Y-125489619D01*
X137299771Y-125489619D02*
X137490247Y-125489619D01*
X137490247Y-125489619D02*
X137585485Y-125537238D01*
X137585485Y-125537238D02*
X137680723Y-125632476D01*
X137680723Y-125632476D02*
X137728342Y-125822952D01*
X137728342Y-125822952D02*
X137728342Y-126156285D01*
X137728342Y-126156285D02*
X137680723Y-126346761D01*
X137680723Y-126346761D02*
X137585485Y-126442000D01*
X137585485Y-126442000D02*
X137490247Y-126489619D01*
X137490247Y-126489619D02*
X137299771Y-126489619D01*
X138109295Y-125584857D02*
X138156914Y-125537238D01*
X138156914Y-125537238D02*
X138252152Y-125489619D01*
X138252152Y-125489619D02*
X138490247Y-125489619D01*
X138490247Y-125489619D02*
X138585485Y-125537238D01*
X138585485Y-125537238D02*
X138633104Y-125584857D01*
X138633104Y-125584857D02*
X138680723Y-125680095D01*
X138680723Y-125680095D02*
X138680723Y-125775333D01*
X138680723Y-125775333D02*
X138633104Y-125918190D01*
X138633104Y-125918190D02*
X138061676Y-126489619D01*
X138061676Y-126489619D02*
X138680723Y-126489619D01*
X137856933Y-113389580D02*
X137809314Y-113437200D01*
X137809314Y-113437200D02*
X137666457Y-113484819D01*
X137666457Y-113484819D02*
X137571219Y-113484819D01*
X137571219Y-113484819D02*
X137428362Y-113437200D01*
X137428362Y-113437200D02*
X137333124Y-113341961D01*
X137333124Y-113341961D02*
X137285505Y-113246723D01*
X137285505Y-113246723D02*
X137237886Y-113056247D01*
X137237886Y-113056247D02*
X137237886Y-112913390D01*
X137237886Y-112913390D02*
X137285505Y-112722914D01*
X137285505Y-112722914D02*
X137333124Y-112627676D01*
X137333124Y-112627676D02*
X137428362Y-112532438D01*
X137428362Y-112532438D02*
X137571219Y-112484819D01*
X137571219Y-112484819D02*
X137666457Y-112484819D01*
X137666457Y-112484819D02*
X137809314Y-112532438D01*
X137809314Y-112532438D02*
X137856933Y-112580057D01*
X138190267Y-112484819D02*
X138809314Y-112484819D01*
X138809314Y-112484819D02*
X138475981Y-112865771D01*
X138475981Y-112865771D02*
X138618838Y-112865771D01*
X138618838Y-112865771D02*
X138714076Y-112913390D01*
X138714076Y-112913390D02*
X138761695Y-112961009D01*
X138761695Y-112961009D02*
X138809314Y-113056247D01*
X138809314Y-113056247D02*
X138809314Y-113294342D01*
X138809314Y-113294342D02*
X138761695Y-113389580D01*
X138761695Y-113389580D02*
X138714076Y-113437200D01*
X138714076Y-113437200D02*
X138618838Y-113484819D01*
X138618838Y-113484819D02*
X138333124Y-113484819D01*
X138333124Y-113484819D02*
X138237886Y-113437200D01*
X138237886Y-113437200D02*
X138190267Y-113389580D01*
X129322533Y-121873180D02*
X129274914Y-121920800D01*
X129274914Y-121920800D02*
X129132057Y-121968419D01*
X129132057Y-121968419D02*
X129036819Y-121968419D01*
X129036819Y-121968419D02*
X128893962Y-121920800D01*
X128893962Y-121920800D02*
X128798724Y-121825561D01*
X128798724Y-121825561D02*
X128751105Y-121730323D01*
X128751105Y-121730323D02*
X128703486Y-121539847D01*
X128703486Y-121539847D02*
X128703486Y-121396990D01*
X128703486Y-121396990D02*
X128751105Y-121206514D01*
X128751105Y-121206514D02*
X128798724Y-121111276D01*
X128798724Y-121111276D02*
X128893962Y-121016038D01*
X128893962Y-121016038D02*
X129036819Y-120968419D01*
X129036819Y-120968419D02*
X129132057Y-120968419D01*
X129132057Y-120968419D02*
X129274914Y-121016038D01*
X129274914Y-121016038D02*
X129322533Y-121063657D01*
X130274914Y-121968419D02*
X129703486Y-121968419D01*
X129989200Y-121968419D02*
X129989200Y-120968419D01*
X129989200Y-120968419D02*
X129893962Y-121111276D01*
X129893962Y-121111276D02*
X129798724Y-121206514D01*
X129798724Y-121206514D02*
X129703486Y-121254133D01*
X128560533Y-107592019D02*
X128227200Y-107115828D01*
X127989105Y-107592019D02*
X127989105Y-106592019D01*
X127989105Y-106592019D02*
X128370057Y-106592019D01*
X128370057Y-106592019D02*
X128465295Y-106639638D01*
X128465295Y-106639638D02*
X128512914Y-106687257D01*
X128512914Y-106687257D02*
X128560533Y-106782495D01*
X128560533Y-106782495D02*
X128560533Y-106925352D01*
X128560533Y-106925352D02*
X128512914Y-107020590D01*
X128512914Y-107020590D02*
X128465295Y-107068209D01*
X128465295Y-107068209D02*
X128370057Y-107115828D01*
X128370057Y-107115828D02*
X127989105Y-107115828D01*
X128893867Y-106592019D02*
X129512914Y-106592019D01*
X129512914Y-106592019D02*
X129179581Y-106972971D01*
X129179581Y-106972971D02*
X129322438Y-106972971D01*
X129322438Y-106972971D02*
X129417676Y-107020590D01*
X129417676Y-107020590D02*
X129465295Y-107068209D01*
X129465295Y-107068209D02*
X129512914Y-107163447D01*
X129512914Y-107163447D02*
X129512914Y-107401542D01*
X129512914Y-107401542D02*
X129465295Y-107496780D01*
X129465295Y-107496780D02*
X129417676Y-107544400D01*
X129417676Y-107544400D02*
X129322438Y-107592019D01*
X129322438Y-107592019D02*
X129036724Y-107592019D01*
X129036724Y-107592019D02*
X128941486Y-107544400D01*
X128941486Y-107544400D02*
X128893867Y-107496780D01*
X143851333Y-109928819D02*
X143518000Y-109452628D01*
X143279905Y-109928819D02*
X143279905Y-108928819D01*
X143279905Y-108928819D02*
X143660857Y-108928819D01*
X143660857Y-108928819D02*
X143756095Y-108976438D01*
X143756095Y-108976438D02*
X143803714Y-109024057D01*
X143803714Y-109024057D02*
X143851333Y-109119295D01*
X143851333Y-109119295D02*
X143851333Y-109262152D01*
X143851333Y-109262152D02*
X143803714Y-109357390D01*
X143803714Y-109357390D02*
X143756095Y-109405009D01*
X143756095Y-109405009D02*
X143660857Y-109452628D01*
X143660857Y-109452628D02*
X143279905Y-109452628D01*
X144708476Y-109262152D02*
X144708476Y-109928819D01*
X144470381Y-108881200D02*
X144232286Y-109595485D01*
X144232286Y-109595485D02*
X144851333Y-109595485D01*
X144714933Y-117555180D02*
X144667314Y-117602800D01*
X144667314Y-117602800D02*
X144524457Y-117650419D01*
X144524457Y-117650419D02*
X144429219Y-117650419D01*
X144429219Y-117650419D02*
X144286362Y-117602800D01*
X144286362Y-117602800D02*
X144191124Y-117507561D01*
X144191124Y-117507561D02*
X144143505Y-117412323D01*
X144143505Y-117412323D02*
X144095886Y-117221847D01*
X144095886Y-117221847D02*
X144095886Y-117078990D01*
X144095886Y-117078990D02*
X144143505Y-116888514D01*
X144143505Y-116888514D02*
X144191124Y-116793276D01*
X144191124Y-116793276D02*
X144286362Y-116698038D01*
X144286362Y-116698038D02*
X144429219Y-116650419D01*
X144429219Y-116650419D02*
X144524457Y-116650419D01*
X144524457Y-116650419D02*
X144667314Y-116698038D01*
X144667314Y-116698038D02*
X144714933Y-116745657D01*
X145572076Y-116983752D02*
X145572076Y-117650419D01*
X145333981Y-116602800D02*
X145095886Y-117317085D01*
X145095886Y-117317085D02*
X145714933Y-117317085D01*
D12*
%TO.C,C2*%
X132447848Y-113390000D02*
X133870352Y-113390000D01*
X132447848Y-115210000D02*
X133870352Y-115210000D01*
%TO.C,R5*%
X143068664Y-110291200D02*
X141614536Y-110291200D01*
X143068664Y-112111200D02*
X141614536Y-112111200D01*
%TO.C,R2*%
X129942000Y-115503336D02*
X129942000Y-116957464D01*
X128122000Y-115503336D02*
X128122000Y-116957464D01*
%TO.C,Q1*%
X135290078Y-116017522D02*
G75*
G02*
X133451600Y-120456001I-1838478J-1838478D01*
G01*
X133451600Y-120456000D02*
G75*
G02*
X131613122Y-116017522I0J2600000D01*
G01*
X135251600Y-116006000D02*
X131651600Y-116006000D01*
%TO.C,TP2*%
X137199600Y-107645200D02*
G75*
G02*
X135799600Y-107645200I-700000J0D01*
G01*
X135799600Y-107645200D02*
G75*
G02*
X137199600Y-107645200I700000J0D01*
G01*
%TO.C,TP3*%
X135525200Y-126303200D02*
X134125200Y-126303200D01*
X135525200Y-124903200D02*
X135525200Y-126303200D01*
X134125200Y-126303200D02*
X134125200Y-124903200D01*
X134125200Y-124903200D02*
X135525200Y-124903200D01*
%TO.C,TP4*%
X145327600Y-125603200D02*
G75*
G02*
X143927600Y-125603200I-700000J0D01*
G01*
X143927600Y-125603200D02*
G75*
G02*
X145327600Y-125603200I700000J0D01*
G01*
%TO.C,Q3*%
X137900000Y-119045600D02*
X141500000Y-119045600D01*
X137861522Y-119034078D02*
G75*
G02*
X139700000Y-114595599I1838478J1838478D01*
G01*
X139700000Y-114595600D02*
G75*
G02*
X141538478Y-119034078I0J-2600000D01*
G01*
%TO.C,Q2*%
X139700000Y-120590000D02*
G75*
G02*
X141538478Y-125028478I0J-2600000D01*
G01*
X137861522Y-125028478D02*
G75*
G02*
X139700000Y-120589999I1838478J1838478D01*
G01*
X137900000Y-125040000D02*
X141500000Y-125040000D01*
%TO.C,C3*%
X135635948Y-112111200D02*
X137058452Y-112111200D01*
X135635948Y-110291200D02*
X137058452Y-110291200D01*
%TO.C,TP1*%
X129224000Y-125476000D02*
G75*
G02*
X127824000Y-125476000I-700000J0D01*
G01*
X127824000Y-125476000D02*
G75*
G02*
X129224000Y-125476000I700000J0D01*
G01*
%TO.C,C1*%
X132532800Y-123952052D02*
X132532800Y-122529548D01*
X130712800Y-123952052D02*
X130712800Y-122529548D01*
%TO.C,R3*%
X128122000Y-110938264D02*
X128122000Y-109484136D01*
X129942000Y-110938264D02*
X129942000Y-109484136D01*
%TO.C,R4*%
X143170264Y-106735200D02*
X141716136Y-106735200D01*
X143170264Y-108555200D02*
X141716136Y-108555200D01*
%TO.C,C4*%
X145436000Y-119761148D02*
X145436000Y-121183652D01*
X143616000Y-119761148D02*
X143616000Y-121183652D01*
%TD*%
%LPC*%
D13*
%TO.C,C2*%
X131596600Y-114300000D03*
X134721600Y-114300000D03*
%TD*%
D14*
%TO.C,R5*%
X143891600Y-111201200D03*
X140791600Y-111201200D03*
%TD*%
D15*
%TO.C,R2*%
X129032000Y-117780400D03*
X129032000Y-114680400D03*
%TD*%
D16*
%TO.C,Q1*%
X132181600Y-117856000D03*
X133451600Y-117856000D03*
D17*
X134721600Y-117856000D03*
%TD*%
D18*
%TO.C,TP2*%
X136499600Y-107645200D03*
%TD*%
D19*
%TO.C,TP3*%
X134825200Y-125603200D03*
%TD*%
D18*
%TO.C,TP4*%
X144627600Y-125603200D03*
%TD*%
D17*
%TO.C,Q3*%
X138430000Y-117195600D03*
D16*
X139700000Y-117195600D03*
X140970000Y-117195600D03*
%TD*%
%TO.C,Q2*%
X140970000Y-123190000D03*
X139700000Y-123190000D03*
D17*
X138430000Y-123190000D03*
%TD*%
D13*
%TO.C,C3*%
X137909700Y-111201200D03*
X134784700Y-111201200D03*
%TD*%
D18*
%TO.C,TP1*%
X128524000Y-125476000D03*
%TD*%
D20*
%TO.C,C1*%
X131622800Y-121678300D03*
X131622800Y-124803300D03*
%TD*%
D21*
%TO.C,R3*%
X129032000Y-111761200D03*
X129032000Y-108661200D03*
%TD*%
D14*
%TO.C,R4*%
X143993200Y-107645200D03*
X140893200Y-107645200D03*
%TD*%
D22*
%TO.C,C4*%
X144526000Y-122034900D03*
X144526000Y-118909900D03*
%TD*%
%LPD*%
M02*
